<svg width="64" height="64" viewBox="0 0 64 64" fill="none" xmlns="http://www.w3.org/2000/svg">
<path d="M11.3488 49.7209C10.493 49.7209 9.72093 49.3767 9.03256 48.6884C8.34419 48 8 47.2279 8 46.3721V17.3488C8 16.493 8.34419 15.7209 9.03256 15.0326C9.72093 14.3442 10.493 14 11.3488 14H27.0326L30.3814 17.3488H49.3023C50.1581 17.3488 50.9302 17.693 51.6186 18.3814C52.307 19.0698 52.6512 19.8419 52.6512 20.6977H28.9302L25.5814 17.3488H11.3488V46.3721L17.0419 24.0465H56L50.0279 47.1535C49.8047 48.0465 49.3954 48.6977 48.8 49.107C48.2047 49.5163 47.4419 49.7209 46.5116 49.7209H11.3488ZM14.8651 46.3721H46.7907L51.4791 27.3953H19.5535L14.8651 46.3721ZM14.8651 46.3721L19.5535 27.3953L14.8651 46.3721V46.3721ZM11.3488 20.6977V17.3488V20.6977Z" fill="#2572E4"/>
</svg>
