<svg height="64" viewBox="0 0 64 64" width="64" xmlns="http://www.w3.org/2000/svg"><path d="m17.6787293 7.82143902c-1.1082063-.53670731-2.0885342-.9702439-3.0181498-1.34857317 1.4698881-3.90128048 3.5925598-6.47286585 6.3396952-6.47286585 2.676226 0 4.7598207 2.44009756 6.2245498 6.17257317-.9398239.39621951-1.9048942.83765854-3.0014652 1.38512195-1.1223662-2.93828049-2.4029065-4.26501219-3.2230846-4.26501219-.8442169 0-2.1760184 1.40608536-3.3215454 4.52875609zm3.3215454 33.88587808c-.8200682 0-2.100389-1.3267317-3.222865-4.2650122-1.1068891.5526219-2.0639464.989561-3.0016848 1.3851219 1.4649487 3.7323659 3.5483238 6.1725732 6.2245498 6.1725732 2.7472452 0 4.8698071-2.5715854 6.3399148-6.4727561-.9262128-.3772317-1.9033575-.8085732-3.01804-1.3486829-1.1456368 3.1227805-2.4777675 4.5287561-3.3218748 4.5287561zm-8.988699-4.1538293c-3.66072507 1.3220122-9.12283419 2.6098902-11.29358377-.594878-1.0724223-1.583561-1.47263231-4.6277561 2.7106928-10.1389391 1.10985281-1.4620609 2.394674-2.8983292 3.69793602-4.2166097 2.92364055-2.9134756 6.21730515-5.7179634 10.50886045-8.6216708-2.066032-1.1186341-4.3211923-2.1880975-6.5214692-2.983939-2.25241613-.8148292-4.23546437-1.26603657-5.75485736-1.26603657-.97055865 0-1.69084883.20228049-1.92673783.54109757-.2508173.3601098-.26322095 1.4677683.85003462 3.4546829.13183001-.0144878.26541629-.0226097.4008686-.0226097 2.00050117 0 3.62230665 1.6216463 3.62230665 3.6219512 0 2.0005244-1.62180548 3.6219512-3.62230665 3.6219512s-3.62230664-1.6214268-3.62230664-3.6219512c0-.6477805.17112655-1.2555.46903383-1.7816707-2.11970799-3.6747439-1.68250656-5.88632931-.80031024-7.15357322.61996327-.89067073 1.9265183-1.95245122 4.62930789-1.95245122 4.79933673 0 11.26592253 3.11224391 15.42927003 5.52314634 4.2271221-2.55501219 10.9132416-5.92540243 15.8525311-5.92540243 2.7137663 0 4.0217483 1.09009756 4.6410529 2.00458536 1.0724223 1.58356098 1.4726323 4.62775607-2.7104732 10.13893907-5.8876753 7.7570122-17.5940922 16.1353536-26.55985 19.373378zm23.9371902-21.3640244c2.8740259-3.7862561 2.9619492-5.7778902 2.6069631-6.3019756-.2401699-.3547317-.9379579-.55821951-1.9143342-.55821951-3.7266949 0-9.403069 2.73621951-12.6710481 4.58813411 2.4127855 1.5680854 4.6670676 3.2209025 6.7220132 4.9062074-.7775885.7746585-1.5927173 1.5345-2.4260673 2.2697561-2.2812849-1.8446708-4.8172288-3.6509269-7.445816-5.2695-3.0185889 1.9435609-6.0575944 4.2265975-8.7873866 6.6591219 2.0531893 1.7827683 4.4974779 3.6543293 7.1046605 5.3863902-.9973417.620561-2.004343 1.2153293-3.1534923 1.8377561-.0004391-.0003292-.0006586-.0005487-.0010977-.0007682-.0085618-.0060366-.0169041-.0119635-.0254659-.018-2.1827142-1.520561-4.336889-3.1889635-6.32937716-4.935183-5.38077187 5.3964878-6.89643279 9.3067683-6.18382628 10.3591098.24027968.3547317.93839696.558439 1.91466348.558439 4.48628166 0 11.60762676-3.7820854 15.82058896-6.4945976 5.1725441-3.3303292 11.0709765-8.1144878 14.7690223-12.9866707zm4.5376526 13.2943171c.2678311-.5053171.4202973-1.0815366.4202973-1.6937561 0-2.0004146-1.6216957-3.6219512-3.6223067-3.6219512-2.0005011 0-3.6223066 1.6215366-3.6223066 3.6219512 0 2.0005244 1.6218055 3.6219512 3.6223066 3.6219512.1669554 0 .3311667-.0122927.4917556-.0342439 1.0549694 1.9212805 1.0376262 2.9959024.7913094 3.3496463-.2357793.3388171-.9559597.5410976-1.9265183.5410976-3.0576659 0-7.3174985-1.7715732-10.0601335-3.1087317-.9173217.6409756-2.0559334 1.4015854-3.1663351 2.0987561 3.6765315 1.9446585 9.0834279 4.3026585 13.2264686 4.3026585 2.70257 0 4.0089055-1.0617805 4.6290883-1.9523414.8803303-1.2641708 1.3172024-3.4674147-.7836256-7.1250366z" fill="#236de7" transform="translate(11 10)"/></svg>