<svg height="64" viewBox="0 0 64 64" width="64" xmlns="http://www.w3.org/2000/svg"><g fill="#236de7" fill-rule="evenodd"><path d="m27 24.5c0-.8284271 2.2385763-1.5 5-1.5s5 .6715729 5 1.5v3c0 .8284271-2.2385763 1.5-5 1.5s-5-.6715729-5-1.5c0 0 0-1 0-3zm5 1.5c1.6568542 0 3-.4477153 3-1s-1.3431458-1-3-1-3 .4477153-3 1 1.3431458 1 3 1z"/><path d="m27 14.5c0-.8284271 2.2385763-1.5 5-1.5s5 .6715729 5 1.5v3c0 .8284271-2.2385763 1.5-5 1.5s-5-.6715729-5-1.5c0 0 0-1 0-3zm5 1.5c1.6568542 0 3-.4477153 3-1s-1.3431458-1-3-1-3 .4477153-3 1 1.3431458 1 3 1z"/><path d="m17 19.5c0-.8284271 2.2385763-1.5 5-1.5s5 .6715729 5 1.5v3c0 .8284271-2.2385763 1.5-5 1.5s-5-.6715729-5-1.5c0 0 0-1 0-3zm5 1.5c1.6568542 0 3-.4477153 3-1s-1.3431458-1-3-1-3 .4477153-3 1 1.3431458 1 3 1z"/><path d="m37 19.5c0-.8284271 2.2385763-1.5 5-1.5s5 .6715729 5 1.5v3c0 .8284271-2.2385763 1.5-5 1.5s-5-.6715729-5-1.5c0 0 0-1 0-3zm5 1.5c1.6568542 0 3-.4477153 3-1s-1.3431458-1-3-1-3 .4477153-3 1 1.3431458 1 3 1z"/><path d="m33 32 24-12v12l-24 12z"/><path d="m33 46 24-12v12l-24 12z"/><path d="m7 32 24-12v12l-24 12z" transform="matrix(-1 0 0 1 38 0)"/><path d="m7 46 24-12v12l-24 12z" transform="matrix(-1 0 0 1 38 0)"/><path d="m54 21.5-22-11.5-22 11.5-3-1.5 25-13 25 13z"/></g></svg>