<svg width="16" height="16" viewBox="0 0 16 16" fill="none" xmlns="http://www.w3.org/2000/svg">
<path d="M0 8C0 3.58172 3.58172 0 8 0C12.4183 0 16 3.58172 16 8C16 12.4183 12.4183 16 8 16C3.58172 16 0 12.4183 0 8Z" fill="#0968FF"/>
<path d="M9.02592 4.11111C9.02592 3.44063 8.47701 2.9 7.81481 2.9C7.14476 2.9 6.6037 3.44107 6.6037 4.11111C6.6037 4.77331 7.14433 5.32222 7.81481 5.32222C8.47744 5.32222 9.02592 4.77375 9.02592 4.11111ZM6.51851 13.1H9.48147C9.94411 13.1 10.3222 12.7219 10.3222 12.2593C10.3222 11.7886 9.94346 11.4185 9.48147 11.4185H8.92592C8.88001 11.4185 8.84073 11.377 8.84073 11.3333V7.81481C8.84073 6.93704 8.12897 6.23333 7.25925 6.23333H6.51851C6.04847 6.23333 5.67777 6.60403 5.67777 7.07407C5.67777 7.53606 6.04782 7.91481 6.51851 7.91481H7.07407C7.11774 7.91481 7.15925 7.95409 7.15925 8V11.3333C7.15925 11.3508 7.15073 11.3727 7.13206 11.3913C7.11339 11.41 7.09153 11.4185 7.07407 11.4185H6.51851C6.04847 11.4185 5.67777 11.7892 5.67777 12.2593C5.67777 12.7212 6.04782 13.1 6.51851 13.1Z" fill="white" stroke="white" stroke-width="0.2"/>
</svg>
