<svg width="24" height="24" viewBox="0 0 24 24" version="1.1" xmlns:xlink="http://www.w3.org/1999/xlink" xml:space="preserve">
    <g transform="matrix(1,0,0,1,4,4)">
        <circle id="license-checked-a" cx="8" cy="8" r="8" style="fill:rgb(35,109,231);"/>
        <path d="M7.587,11.338C7.191,11.736 6.549,11.736 6.154,11.338L3.933,9.104C3.537,8.706 3.537,8.06 3.933,7.662C4.329,7.264 4.971,7.264 5.366,7.662L6.689,8.993C6.789,9.093 6.951,9.093 7.051,8.993L10.634,5.389C11.029,4.991 11.671,4.991 12.067,5.389C12.257,5.581 12.364,5.84 12.364,6.11C12.364,6.381 12.257,6.64 12.067,6.831L7.587,11.338Z" style="fill:white;fill-rule:nonzero;"/>
    </g>
</svg>
