<svg width="94" height="36" viewBox="0 0 94 36" fill="none" xmlns="http://www.w3.org/2000/svg">
<g clip-path="url(#clip0_60_1330)">
<path d="M69.0083 24.7064C70.5 24.7064 71.8896 24.1304 73.0544 23.0401C73.1157 22.999 73.177 22.9167 73.2383 22.855C73.4017 22.6698 73.3813 22.4641 73.2587 22.2584C73.2587 22.2584 72.8704 21.6207 72.7683 21.4767C72.6661 21.3327 72.5844 21.271 72.4617 21.2504C72.3187 21.2298 72.1757 21.3121 72.0122 21.4561C71.0722 22.2584 70.0913 22.6698 69.09 22.6698C66.3926 22.6698 65.1665 20.0984 65.1665 17.7121C65.1665 15.3464 66.3722 12.9601 69.09 12.9601C70.0096 12.9601 70.97 13.3098 71.8691 13.9887C72.0939 14.1532 72.3391 14.1327 72.4617 13.9269L72.9726 13.0629C73.1361 12.7749 73.0952 12.5898 72.9113 12.4047C72.8704 12.3635 72.8091 12.3018 72.7478 12.2607C72.0122 11.6641 70.7657 10.9441 69.0083 10.9441C67.4757 10.9441 66.127 11.4995 65.0644 12.5692C63.7974 13.8447 63.123 15.6961 63.123 17.7738C63.123 19.7692 63.6952 21.4767 64.6965 22.6904C65.7183 23.9452 67.2304 24.7064 69.0083 24.7064Z" fill="#53BA7D"/>
<path d="M55.746 10.7589C52.3334 10.7589 49.7791 13.7006 49.7791 17.6092C49.7791 21.6206 52.3334 24.6446 55.746 24.6446C59.1382 24.6446 61.6925 21.6206 61.6925 17.6092C61.6925 13.7212 59.1382 10.7589 55.746 10.7589ZM55.746 22.5669C53.5595 22.5669 51.986 20.4686 51.986 17.6092C51.986 14.8115 53.539 12.8366 55.746 12.8366C57.953 12.8366 59.506 14.8115 59.506 17.6092C59.506 20.5509 57.953 22.5669 55.746 22.5669Z" fill="#53BA7D"/>
<path d="M48.9208 22.4641H44.0778V11.3967C44.0778 11.1704 43.8939 10.9852 43.6691 10.9852H42.3408C42.116 10.9852 41.9321 11.1704 41.9321 11.3967V24.0481C41.9321 24.2744 42.116 24.4595 42.3408 24.4595H48.9208C49.1456 24.4595 49.3295 24.2744 49.3295 24.0481V22.8755C49.3295 22.6492 49.1456 22.4641 48.9208 22.4641Z" fill="#53BA7D"/>
<path d="M93.4278 22.4641H88.5847V11.3967C88.5847 11.1704 88.4008 10.9852 88.176 10.9852H86.8478C86.623 10.9852 86.4391 11.1704 86.4391 11.3967V24.0481C86.4391 24.2744 86.623 24.4595 86.8478 24.4595H93.4278C93.6526 24.4595 93.8365 24.2744 93.8365 24.0481V22.8755C93.8365 22.6492 93.6526 22.4641 93.4278 22.4641Z" fill="#53BA7D"/>
<path d="M84.7634 23.9246L80.6765 11.2937C80.6152 11.1292 80.4721 11.0057 80.2882 11.0057H78.9191C78.7556 11.0057 78.633 11.1086 78.5717 11.2526L74.4234 23.9246C74.3417 24.192 74.5256 24.4595 74.8117 24.4595H76.14C76.3239 24.4595 76.4669 24.336 76.5282 24.1715L77.6317 20.6949H81.596L82.72 24.1715C82.7813 24.336 82.9243 24.4595 83.1082 24.4595H84.3547C84.6613 24.4595 84.8452 24.192 84.7634 23.9246ZM78.1221 18.7817L79.3482 14.9143C79.4504 14.6057 79.5526 14.1943 79.6343 13.8446C79.716 14.2149 79.8182 14.6057 79.9204 14.9143L81.1465 18.7817H78.1221Z" fill="#53BA7D"/>
<g clip-path="url(#clip1_60_1330)">
<path d="M17.0043 7.22061V1.26922C17.0043 0.86019 16.7402 0.492062 16.3745 0.32845C16.0088 0.164838 15.5619 0.267096 15.2775 0.553417L2.1129 13.806C0.711119 15.2172 0.0407014 16.5874 0.0203857 18.019C0.0203857 19.4506 0.670487 20.8004 2.05195 22.1911L15.2775 35.5051C15.4603 35.7096 15.7244 35.8118 15.9885 35.8118C16.1104 35.8118 16.2526 35.7914 16.3745 35.6891C16.7605 35.5255 17.0043 35.1574 17.0043 34.7484V28.7356C17.0043 28.4697 16.8824 28.2039 16.6996 28.0198L6.72456 17.9781L16.6996 7.93642C16.9027 7.75235 17.0043 7.48648 17.0043 7.22061ZM14.9727 29.1856V32.3146L5.34309 22.6206C5.30246 22.5593 5.26183 22.4979 5.20088 22.4365C4.89615 22.1298 3.98194 21.2095 5.34309 19.4915L14.9727 29.1856ZM14.9727 6.83204L4.42889 17.4464C3.61626 18.2644 3.06774 19.1234 2.78332 19.9619C2.27543 19.287 2.03164 18.653 2.03164 18.0395C2.05195 17.1805 2.53953 16.2602 3.535 15.2581L14.9727 3.74386V6.83204Z" fill="#53BB7D"/>
<path d="M9.54846 17.9985V18.0803C9.54846 18.5098 9.89383 18.8574 10.3205 18.8574H25.415C25.8416 18.8574 26.187 18.5098 26.187 18.0803V17.9985C26.187 17.569 25.8416 17.2213 25.415 17.2213H10.3205C9.89383 17.2213 9.54846 17.569 9.54846 17.9985Z" fill="#53BB7D"/>
<path d="M12.4536 15.033V15.1148C12.4536 15.5443 12.799 15.892 13.2256 15.892H22.4896C22.9162 15.892 23.2616 15.5443 23.2616 15.1148V15.033C23.2616 14.6035 22.9162 14.2559 22.4896 14.2559H13.2256C12.799 14.2559 12.4536 14.6035 12.4536 15.033Z" fill="#53BB7D"/>
<path d="M19.625 12.9061C20.0517 12.9061 20.397 12.5585 20.397 12.129V12.0472C20.397 11.6177 20.0517 11.27 19.625 11.27H15.9479C15.5213 11.27 15.1759 11.6177 15.1759 12.0472V12.129C15.1759 12.5585 15.5213 12.9061 15.9479 12.9061H19.625Z" fill="#53BB7D"/>
<path d="M15.9479 24.8703H19.625C20.0517 24.8703 20.397 24.5226 20.397 24.0931V24.0113C20.397 23.5818 20.0517 23.2341 19.625 23.2341H15.9479C15.5213 23.2341 15.1759 23.5818 15.1759 24.0113V24.0931C15.1759 24.5226 15.5213 24.8703 15.9479 24.8703Z" fill="#53BB7D"/>
<path d="M13.2256 21.8639H22.4896C22.9162 21.8639 23.2616 21.5162 23.2616 21.0867V21.0049C23.2616 20.5755 22.9162 20.2278 22.4896 20.2278H13.2256C12.799 20.2278 12.4536 20.5755 12.4536 21.0049V21.0867C12.4536 21.5162 12.799 21.8639 13.2256 21.8639Z" fill="#53BB7D"/>
<path d="M33.8256 13.8877L20.6001 0.573802C20.3157 0.287481 19.8891 0.185223 19.5031 0.348836C19.1171 0.512448 18.8733 0.880575 18.8733 1.28961V7.32281C18.8733 7.58868 18.9952 7.85455 19.178 8.03861L29.153 18.0803L19.178 28.122C18.9749 28.3061 18.8733 28.5719 18.8733 28.8378V34.7892C18.8733 35.1982 19.1171 35.5664 19.5031 35.73C19.625 35.7913 19.7672 35.8118 19.8891 35.8118C20.1532 35.8118 20.397 35.7095 20.6001 35.5255L33.7647 22.2729C35.1665 20.8617 35.8369 19.4915 35.8572 18.0599C35.8572 16.6283 35.2071 15.2785 33.8256 13.8877ZM20.9049 6.87287V3.74379L30.5345 13.4378C30.5751 13.4992 30.6158 13.5605 30.6767 13.6219C30.9814 13.9286 31.8956 14.849 30.5345 16.5669L20.9049 6.87287ZM32.3223 20.8004L20.8845 32.3146V29.2468L31.4284 18.612C32.241 17.794 32.7895 16.935 33.0739 16.0965C33.5818 16.7714 33.8256 17.4054 33.8256 18.019C33.8053 18.8779 33.3177 19.7982 32.3223 20.8004Z" fill="#53BB7D"/>
</g>
</g>
<defs>
<clipPath id="clip0_60_1330">
<rect width="94" height="36" fill="white"/>
</clipPath>
<clipPath id="clip1_60_1330">
<rect width="35.9588" height="35.7902" fill="white" transform="translate(0.0203857 0.205688)"/>
</clipPath>
</defs>
</svg>
