<svg xmlns="http://www.w3.org/2000/svg" width="52" height="52" viewBox="0 0 52 52">
  <g fill="none">
    <path fill="#FFF" d="M42.8675,30.29 L40.3686111,30.29 L38.4655556,30.29 L37.3352778,30.29 C37.3352778,29.2897222 38.0141667,28.4772222 38.8519444,28.4772222 C38.87,28.4772222 38.8880556,28.4808333 38.9061111,28.4808333 C39.4080556,27.5383333 40.2891667,26.91 41.2930556,26.91 C42.2752778,26.91 43.1455556,27.5166667 43.6511111,28.4302778 C43.9725,28.1413889 44.3733333,27.9680556 44.8102778,27.9680556 C45.8863889,27.9680556 46.7530556,29.0080556 46.7530556,30.29 L44.1169444,30.29 L42.8675,30.29 L42.8675,30.29 Z M30.7955556,18.0663889 C29.4052778,15.9105556 30.0913889,12.9963889 32.3302778,11.5519444 L32.7166667,12.155 C33.5508333,10.2952778 35.4683333,8.99527778 37.7,8.99527778 L37.7,19.0305556 L39.7005556,19.0305556 C39.7041667,17.8641667 40.8272222,16.9180556 42.2175,16.9180556 C43.6077778,16.9180556 44.7308333,17.8641667 44.7308333,19.0305556 L42.2175,19.0305556 C42.2102778,20.2077778 39.0505556,21.1647222 35.1541667,21.1647222 C31.2541667,21.1647222 28.0908333,20.2077778 28.0908333,19.0305556 L31.6658333,19.0305556 C31.3408333,18.7525 31.0375,18.4419444 30.7955556,18.0663889 L30.7955556,18.0663889 Z M24.4616667,22.0566667 L21.4319444,22.0566667 L19.1352778,22.0566667 L17.7738889,22.0566667 C17.7738889,21.2694444 18.5936111,20.6266667 19.6011111,20.6266667 C19.6877778,20.6266667 19.7708333,20.6375 19.8502778,20.6447222 C20.3377778,20.2366667 21.0275,19.9802778 21.8002778,19.9802778 C23.27,19.9802778 24.4616667,20.9083333 24.4616667,22.0566667 L24.4616667,22.0566667 Z M15.5891667,11.9925 L17.0913889,13.585 C17.1202778,13.1733333 17.2286111,12.7616667 17.4308333,12.3752778 C18.2361111,10.8297222 20.1861111,10.2519444 21.7930556,11.0861111 L19.3266667,15.8311111 L20.28,15.8311111 C20.2836111,15.1775 20.9155556,14.6466667 21.6955556,14.6466667 C22.4827778,14.6466667 23.1147222,15.1775 23.1147222,15.8347222 L21.6955556,15.8383333 C21.6847222,16.4991667 19.9080556,17.0336111 17.7125,17.0336111 C15.5133333,17.0336111 13.7294444,16.4955556 13.7294444,15.8311111 L15.2497222,15.8311111 C14.365,14.7044444 14.4841667,13.0397222 15.5891667,11.9925 L15.5891667,11.9925 Z M8.78944444,16.7158333 C8.94833333,16.8891667 9.1,17.0733333 9.24083333,17.2647222 C11.2955556,17.3586111 13.1191667,18.8066667 13.6030556,20.9083333 C14.0255556,22.7572222 13.2925,24.5988889 11.8805556,25.6822222 C12.7761111,25.8952778 13.6175,26.2744444 14.365,26.7980556 C15.3761111,25.8627778 16.64,25.1730556 18.0808333,24.8408333 C19.8358333,24.44 21.5836111,24.635 23.1183333,25.2922222 C23.8008333,24.8552778 24.6133333,24.5988889 25.4836111,24.6061111 C27.8813889,24.6205556 29.8133333,26.5741667 29.7988889,28.9683333 C29.7988889,29.0441667 29.7952778,29.12 29.7916667,29.1922222 C31.0952778,29.2897222 32.1208333,30.3802778 32.1136111,31.7091667 C32.1136111,31.9041667 32.0847222,32.0955556 32.045,32.2761111 C35.9522222,31.8175 39.6608333,34.3669444 40.56,38.2886111 C40.6069444,38.4980556 40.6430556,38.7075 40.6755556,38.9169444 C42.1416667,39.5922222 43.3694444,40.7622222 44.1025,42.2644444 C43.8677778,42.5244444 43.6222222,42.7844444 43.3766667,43.0336111 C38.9530556,47.5438889 32.7997222,50.3497222 26,50.3497222 C12.5738889,50.3497222 1.65027778,39.4261111 1.65027778,26 C1.65027778,22.2444444 2.50611111,18.6838889 4.03,15.5061111 C4.17083333,15.2136111 4.31888889,14.9319444 4.47055556,14.6466667 C5.78861111,14.7369444 7.03805556,15.2208333 8.04916667,16.0261111 C8.33805556,16.2030556 8.59083333,16.4341667 8.78944444,16.7158333 L8.78944444,16.7158333 Z M26,0 C16.1272222,0 6.94416667,5.7525 2.61083333,14.6575 C2.39777778,15.0908333 2.21361111,15.4952778 2.04388889,15.8961111 C0.686111111,19.0991667 0,22.5008333 0,26 C0,40.3361111 11.6638889,52 26,52 C32.6913889,52 39.0541667,49.4469444 43.9183333,44.8138889 C49.1291667,39.8486111 52,33.1680556 52,26 C52,11.6638889 40.3361111,0 26,0 L26,0 Z"/>
    <path fill="#FFF" d="M8.63737931 31.9513103C8.86689655 31.8975172 9.09282759 31.8831724 9.32234483 31.858069 9.09282759 31.8831724 8.86689655 31.8975172 8.63737931 31.9513103 7.97393103 32.101931 7.36427586 32.3565517 6.81558621 32.690069L6.81558621 32.6936552C7.36427586 32.3565517 7.97393103 32.101931 8.63737931 31.9513103M5.93875862 30.9955862C5.61241379 30.6046897 5.23944828 30.2532414 4.81986207 29.969931 5.23944828 30.2532414 5.61241379 30.6046897 5.93875862 30.9955862M15.8277241 35.9947586C16.0357241 36.1202759 16.2257931 36.2673103 16.4051034 36.4286897 16.2257931 36.2673103 16.0357241 36.1202759 15.8277241 35.9947586 15.4583448 35.0049655 14.8415172 34.1622069 14.0776552 33.5023448 14.8415172 34.1622069 15.4583448 35.0049655 15.8277241 35.9947586M17.9615172 38.7489655C17.9507586 38.6198621 17.9256552 38.4871724 17.9005517 38.3544828 17.9256552 38.4871724 17.9507586 38.6198621 17.9615172 38.7489655L17.9615172 38.7489655zM9.2057931 22.7813793C9.19862069 22.2613793 9.152 21.7342069 9.03365517 21.2034483 8.95475862 20.8735172 8.84 20.5651034 8.72524138 20.2531034 8.84 20.5651034 8.95475862 20.8735172 9.03006897 21.2034483 9.152 21.7342069 9.19862069 22.2613793 9.2057931 22.7813793M5.408 16.154069C5.39006897 16.1397241 5.36855172 16.1325517 5.35062069 16.1217931 5.36855172 16.1325517 5.39006897 16.1397241 5.408 16.154069zM22.9800079 37.7035862C23.9167722 36.8644138 25.1482489 36.2404138 26.5481326 35.9391724 27.1586082 35.810069 27.8006602 35.7383448 28.4602545 35.7383448 29.4987648 35.7383448 30.4846478 35.9104828 31.3793103 36.2188966 30.4846478 35.9104828 29.4987648 35.7383448 28.4602545 35.7383448 27.8006602 35.7383448 27.1586082 35.810069 26.5481326 35.9391724 25.1482489 36.2404138 23.9132637 36.8644138 22.9800079 37.7035862 22.5098715 37.6103448 22.0186842 37.5601379 21.5099545 37.5601379 20.8889535 37.5601379 20.2890033 37.6390345 19.7241379 37.7788966 20.2890033 37.6390345 20.8889535 37.5601379 21.5099545 37.5601379 22.0186842 37.5601379 22.5098715 37.6103448 22.9800079 37.7035862M16.5951724 36.0108966C16.9968276 36.4125517 17.3016552 36.9217931 17.4737931 37.5063448 17.3052414 36.9217931 17.0004138 36.4125517 16.5951724 36.0108966M36.2926657 40.3525267C37.1877643 40.133768 38.0794724 40.5461818 38.560927 41.3064577 39.8561076 41.1128025 41.1207735 41.4534922 42.137931 42.1886646 41.1207735 41.4534922 39.8561076 41.1092163 38.5643175 41.3064577 38.0794724 40.5461818 37.1911548 40.133768 36.2926657 40.3525267 36.1434826 40.3883887 35.99769 40.4421818 35.862069 40.5103198 35.99769 40.4421818 36.1434826 40.3883887 36.2926657 40.3525267"/>
    <path fill="#81BDD4" d="M17.5689236 28.1768837L19.1795173 28.1768837C20.0484381 27.5564485 21.2518388 27.5090034 22.2189222 28.1586356L22.2116509 28.1768837 23.1860055 28.1768837C23.2005481 27.6221416 23.734989 27.1732171 24.3966776 27.1732171 25.0692731 27.1695888 25.6146209 27.6330905 25.6146209 28.1987814L24.3930419 28.1987814C24.3930419 28.1987814 24.3894063 28.202431 24.3894063 28.202431L24.3966776 28.202431C24.3966776 28.6221372 23.567749 28.9834495 22.3788908 29.1440327L22.3788908 34.2972948C21.1173197 34.2972948 20.0338955 33.5308748 19.568532 32.4359891L19.3540286 32.7827029C18.0815505 31.9286921 17.6889001 30.1987726 18.4814722 28.921406 18.4851078 28.9177564 18.4887435 28.9104571 18.4923791 28.9068075 17.9252174 28.7206769 17.5689236 28.4761525 17.5689236 28.202431L17.5834662 28.202431C17.5798305 28.1951318 17.5689236 28.1841829 17.5689236 28.1768837M3.5862069 15.2134369C4.02248511 15.3703705 4.44422071 15.5601507 4.84414241 15.7900767 4.86232066 15.8010256 4.88413458 15.8083248 4.90231283 15.8229233 6.34203093 16.6659853 7.5127108 17.9688993 8.18167072 19.5783813 8.22529854 19.6805706 8.24711245 19.7937088 8.28346897 19.8958981 8.39980983 20.213415 8.51615068 20.5272822 8.59613502 20.8630472 8.71611153 21.4031908 8.763375 21.9396848 8.77064631 22.4688795 8.79246022 23.4542767 8.6433985 24.4141265 8.31982549 25.3082831 8.29801158 25.3703267 8.27983332 25.4287206 8.25438376 25.4834649 7.54543166 27.3046248 6.1711553 28.8338151 4.36423637 29.7097237 4.78960763 29.9980436 5.16771541 30.3557063 5.49855972 30.7535147 5.91302402 31.2535125 6.25113964 31.8228531 6.46564309 32.4651861 7.02189781 32.1257715 7.63995861 31.8666485 8.31255419 31.7133645 8.5452359 31.6586203 8.77428196 31.6476714 9.00696367 31.6184744 10.7666191 31.421395 12.4608328 31.9761371 13.7369466 33.0783221 14.5113404 33.749852 15.1366725 34.6075124 15.5111447 35.6148073 15.7220125 35.7425439 15.9183377 35.8921783 16.0964846 36.0564112 16.1073916 36.06736 16.1219342 36.0746593 16.1328411 36.0856081 16.165562 36.1148051 16.1910116 36.1476517 16.2200968 36.1804982 16.6309254 36.5929052 16.9399558 37.1075015 17.1108314 37.7023894 17.1290097 37.7680825 17.1544593 37.830126 17.1690019 37.8958192 17.1799088 37.9432642 17.1835445 37.9907093 17.1908158 38.0381543 17.2162653 38.1731902 17.2417149 38.3082261 17.2526219 38.4396124 17.3653271 38.3812185 17.4889392 38.3337735 17.6089157 38.2790292 17.9543027 38.1147963 18.3215035 37.9761108 18.7105182 37.8702718 18.7577817 37.8556734 18.7977739 37.8374253 18.8450373 37.8264764 18.8595799 37.8228268 18.8741225 37.8228268 18.8850295 37.8191772 19.4703694 37.676842 20.0920659 37.5965504 20.7355763 37.5965504 21.2591101 37.5965504 21.771737 37.6476451 22.2589143 37.7425352 23.2296334 36.8885243 24.5057471 36.2534906 25.9600078 35.9469226 26.5889756 35.8118867 27.2542999 35.7425439 27.9378024 35.7425439 29.0139553 35.7425439 30.0355735 35.9177257 30.9626647 36.2315929 32.504181 36.757138 33.7802948 37.6731924 34.5874095 38.8191728 34.8928042 39.2571271 35.1327572 39.7242783 35.2890902 40.2206265 35.4345163 40.1512837 35.5908493 40.0965394 35.750818 40.0600433 36.7142657 39.8374165 37.6668065 40.2571227 38.1867047 41.0308419 39.571888 40.8337625 40.9279861 41.1804763 42.0186817 41.9286482 42.4622312 42.2352162 42.8621529 42.6074773 43.2002685 43.0344828 43.4511285 42.782659 43.6947171 42.5198865 43.9310345 42.2571139 43.1929972 40.7388724 41.9605112 39.5563958 40.4771653 38.8739171 40.4480801 38.6622392 40.4117236 38.4505613 40.3644601 38.2388834 39.4591828 34.2753971 35.7253685 31.6951164 31.7879576 32.1622677 31.8352211 31.9797867 31.8606706 31.7863569 31.8606706 31.5892775 31.8679419 30.2462177 30.8354168 29.1440327 29.5229466 29.045493 29.5265822 28.9725006 29.5302179 28.8958586 29.5302179 28.8192166 29.5411248 26.3995192 27.5996868 24.4250753 25.185614 24.4104769 24.3094219 24.4031776 23.4914003 24.658651 22.8042621 25.1039045 21.2591101 24.4396738 19.4994547 24.2425944 17.7325279 24.6477021 16.2819028 24.9798174 15.0094247 25.6805443 13.9878066 26.6257956 13.2388623 26.0966009 12.3917555 25.7133909 11.4901138 25.4980633 12.9116537 24.4031776 13.649691 22.5418719 13.2243197 20.673267 12.7371424 18.5491887 10.9047739 17.0856915 8.83245239 16.9908014 8.69066197 16.7973716 8.53796459 16.611241 8.37436027 16.4360593 8.17803507 16.151389 7.92353945 15.9178134 7.63268731 15.7389821 6.61470481 14.925117 5.36040496 14.4360681 4.02975641 14.3448276 3.87705904 14.6331475 3.72799732 14.9178178 3.5862069 15.2134369M44.5862598 28.062069C44.1324836 28.062069 43.7089592 28.2342069 43.3724085 28.5211034 42.843003 27.6137931 41.9316691 27.0113103 40.8993283 27.0113103 39.8518616 27.0113103 38.9291834 27.6353103 38.4035593 28.5713103 38.384652 28.5713103 38.3657447 28.5677241 38.3468373 28.5677241 37.4695367 28.5677241 36.7586207 29.3746207 36.7586207 30.368L46.6206897 30.368C46.6206897 29.0948966 45.7131373 28.062069 44.5862598 28.062069"/>
    <path fill="#04223F" d="M42.7458482,41.767194 C41.6518301,41.0243263 40.2916009,40.6800705 38.8985512,40.8757527 C38.3807159,40.1075187 37.4252734,39.690788 36.4625375,39.9118365 C36.2984348,39.9480739 36.1416255,40.0024301 35.9957564,40.0712813 C35.8389472,39.5784519 35.5982632,39.1146126 35.2919381,38.6797631 C34.4823647,37.5419071 33.2023635,36.6323471 31.6561512,36.1105278 C30.7262358,35.7988857 29.7015055,35.6249459 28.6220743,35.6249459 C27.9328429,35.6249459 27.2691386,35.6974209 26.6382548,35.8278757 C25.179564,36.1322703 23.8995628,36.7628019 22.9258867,37.6107583 C22.4372253,37.5165409 21.9266835,37.4658085 21.3979081,37.4658085 C20.7524374,37.4658085 20.128847,37.5455309 19.541724,37.686857 C19.5307838,37.6904807 19.5161969,37.6904807 19.50161,37.6941044 C19.4578493,37.7085994 19.4140885,37.7267182 19.3666811,37.7375894 C18.9764813,37.842678 18.6081619,37.9803803 18.2617228,38.1434488 C18.1413808,38.197805 18.0173921,38.2449137 17.9043435,38.3028936 L17.9043435,38.3065174 C17.8934034,38.1724388 17.8678763,38.0383602 17.8423492,37.9042817 C17.8350557,37.857173 17.831409,37.8100643 17.8204688,37.7665793 C17.8058819,37.6977282 17.7803548,37.6361245 17.7621212,37.5708971 C17.5870783,36.9802266 17.2771065,36.4692786 16.8686731,36.0561716 C16.8394992,36.0271817 16.8139722,35.994568 16.7811516,35.965578 C16.7702114,35.9547068 16.7556245,35.9474593 16.7446843,35.936588 C16.5659947,35.7735195 16.3690715,35.6249459 16.1575613,35.4981149 C15.7819484,34.4979612 15.1547114,33.6463811 14.3779585,32.979612 C13.0979573,31.8852409 11.3985825,31.3308079 9.62991987,31.5301139 C9.40017607,31.5554801 9.17043227,31.5699751 8.93704173,31.6243313 C8.26604396,31.7765286 7.64245363,32.0338145 7.08450439,32.3744465 L7.08450439,32.3708228 C6.8693475,31.7330436 6.53020188,31.1677394 6.114475,30.6712863 C5.78262284,30.2762981 5.40336323,29.921171 4.97669616,29.6385189 C6.7891195,28.7651963 8.16758233,27.2468471 8.8786941,25.4385982 C8.90057446,25.3806183 8.92245483,25.3226384 8.94433519,25.2646585 C9.2688939,24.3768409 9.4184097,23.4237959 9.39652934,22.4453847 C9.38923589,21.9199417 9.34182844,21.3872511 9.21783972,20.8509368 C9.14125845,20.5175523 9.02456318,20.2059102 8.90786792,19.8906444 C8.87140065,19.7891795 8.84952029,19.6768434 8.80575956,19.5753785 C8.13476178,17.9773069 6.96051567,16.6836299 5.51641176,15.8465448 C5.49817813,15.8320498 5.47629777,15.8248023 5.45806413,15.813931 C5.05692416,15.5856351 4.63390382,15.3972004 4.19629657,15.2413793 C2.65737776,18.4302751 1.79310345,22.0032878 1.79310345,25.7719828 C1.79310345,39.2450674 12.8244528,50.2068966 26.3829839,50.2068966 C33.249771,50.2068966 39.4637938,47.3912465 43.9310345,42.8651888 C43.5882421,42.4412106 43.1907489,42.0715886 42.7458482,41.767194"/>
    <path fill="#81BDD4" d="M19.6481754,20.2351724 C18.699853,20.2351724 17.9310345,20.8663448 17.9310345,21.6517241 L24.2068966,21.6517241 C24.2068966,20.5113103 23.0892309,19.5896552 21.7107766,19.5896552 C20.9859873,19.5896552 20.339096,19.8442759 19.8818691,20.2495172 C19.8073581,20.2387586 19.7294601,20.2351724 19.6481754,20.2351724"/>
    <path fill="#04223F" d="M18.1497393 17.0344828C20.2470977 17.0344828 21.9443022 16.5012864 21.954651 15.846421L23.3103448 15.8428425C23.3103448 15.1915557 22.7032148 14.6655163 21.954651 14.6655163 21.2095368 14.6655163 20.6058564 15.1915557 20.6024068 15.839264L19.6917117 15.839264 22.0477903 11.1371162C20.5127171 10.3104829 18.6499317 10.8830427 17.8806703 12.4146404 17.6909421 12.7975398 17.5840045 13.2054887 17.5598572 13.6134376L16.1213729 12.0353194C15.0657945 13.0730842 14.948508 14.7227723 15.7971103 15.839264L14.3448276 15.8428425C14.3448276 16.5012864 16.0489313 17.0344828 18.1497393 17.0344828M35.0238865 21.5172414C39.0126467 21.5172414 42.2472761 20.5302364 42.2546695 19.316034L44.8275862 19.316034C44.8275862 18.1130052 43.6742098 17.1371738 42.2546695 17.1371738 40.8314326 17.1371738 39.6817529 18.1130052 39.6780562 19.316034L37.6300736 19.316034 37.6337704 8.96551724C35.3455011 8.96551724 33.3825431 10.3063542 32.5286009 12.2244961L32.133052 11.6024967C29.841086 13.0923156 29.1387093 16.0980252 30.5619462 18.3215799 30.8096264 18.7089328 31.1201509 19.0292438 31.4528556 19.316034L27.7931034 19.316034C27.7931034 20.5302364 31.0314296 21.5172414 35.0238865 21.5172414M18.8571607 28.6419044C18.8535145 28.6455788 18.8498683 28.6529275 18.8462222 28.6566019 18.051358 29.9426353 18.4451439 31.6842921 19.721302 32.5440973L19.9364258 32.1950311C20.4031351 33.2973455 21.4896926 34.0689655 22.7549122 34.0689655L22.7549122 28.8807392C23.9472085 28.7190664 24.7785344 28.3553026 24.7785344 27.9327488L24.771242 27.9327488C24.771242 27.9327488 24.7748882 27.9290744 24.7748882 27.9290744L26 27.9290744C26 27.3595453 25.4530751 26.8928989 24.7785344 26.8965517 24.1149321 26.8965517 23.5789457 27.3485222 23.5643611 27.9070281L22.5871886 27.9070281 22.5944809 27.8886562C21.6209545 27.2346164 20.4177197 27.2823833 19.5462861 27.9070281L17.9310345 27.9070281C17.9310345 27.9143769 17.941973 27.9217257 17.941973 27.9327488L17.9310345 27.9327488C17.9310345 28.2083274 18.2883588 28.4545109 18.8571607 28.6419044"/>
  </g>
</svg>
