<svg xmlns="http://www.w3.org/2000/svg" width="433" height="190" viewBox="0 0 433 190">
  <g fill="none" fill-rule="evenodd" opacity=".164" transform="translate(0 11)">
    <path d="M387 145.006955C390.595076 144.870158 393.999641 146.758952 396 150L396 150C393.999641 146.758952 390.595076 144.870158 387 145.006955zM330 131C333.215815 129.127966 336.655644 127.760953 340.218516 126.939086 342.453483 126.434347 344.720771 126.120377 347 126 344.720771 126.120377 342.453483 126.434347 340.218516 126.939086 336.655644 127.760953 333.215815 129.127966 330 131zM317 134.345C315.326709 134.346192 313.655701 134.449795 312 134.655 313.655701 134.449795 315.326709 134.346192 317 134.345zM398 149.023483C406.323 148.648222 414.248407 152.790764 419 160 414.248407 152.790764 406.323 148.648222 398 149.023483L398 149.023483zM350 126.000229C355.12965 125.982462 360.217125 126.999879 365 129 360.217125 126.999879 355.12965 125.982462 350 126.000229L350 126.000229zM300.11 133C300.335256 133.74028 300.519047 134.499843 300.66 135.273016 300.76 135.844444 300.83 136.415873 300.89 137 300.838523 136.419384 300.761739 135.842838 300.66 135.273016 300.519047 134.499843 300.335256 133.74028 300.11 133L300.11 133zM262.133166 58.66C260.690938 52.3675199 257.528933 46.5996404 253 42 260.295888 49.3938477 263.89556 59.6684573 262.809697 70 263.207331 66.2084665 262.97877 62.3773336 262.133166 58.66L262.133166 58.66zM263 74C262.768374 75.5913601 262.460727 77.1565479 262.079365 78.6838407L262 79 262.079365 78.6838407C262.460727 77.1565479 262.768374 75.5913601 263 74L263 74zM283 112C287.697648 115.251822 291.283705 119.968012 293.243326 125.471477 293.50308 125.635906 293.75154 125.823826 294 126 293.75154 125.823826 293.50308 125.635906 293.243326 125.471477 291.283705 119.968012 287.697648 115.251822 283 112zM255 110C258.726762 108.188617 262.820017 107.165303 267 107 262.820017 107.165303 258.726762 108.188617 255 110L255 110zM296 126C296.263473 126.22113 296.526946 126.41769 296.766467 126.651106 298.072176 127.906561 299.164966 129.376294 300 131 299.164966 129.376294 298.072176 127.906561 296.766467 126.651106 296.526946 126.41769 296.263473 126.22113 296 126zM324 134.765L324 134.765C322.351052 134.480371 320.679679 134.303205 319 134.235 320.679679 134.303205 322.351052 134.480371 324 134.765zM238 33L238 33C240.98062 33.8282172 243.840683 35.0765103 246.502207 36.7108434 248.080079 37.6836749 249.583838 38.7833478 251 40 249.583838 38.7833478 248.080079 37.6836749 246.502207 36.7108434 243.840683 35.0765103 240.98062 33.8282172 238 33zM382 144C381.710007 142.967978 381.375963 141.965844 381 141 381.375963 141.965844 381.710007 142.967978 382 144zM423.445 173.758389C423.443778 172.499587 423.353496 171.242868 423.175 170 423.353496 171.242868 423.443778 172.499587 423.445 173.758389L423.445 173.758389C423.617532 174.152881 423.745193 174.570001 423.825 175 423.749764 174.568617 423.621902 174.150841 423.445 173.758389L423.445 173.758389zM383 145.705C383.324852 145.546138 383.658851 145.409198 384 145.295 383.658851 145.409198 383.324852 145.546138 383 145.705L383 145.705zM321.012245 113.044467C322.505402 112.946856 323.826801 113.811733 324 115L324 115C323.736865 113.841942 322.473953 113 321 113 319.526047 113 318.263135 113.841942 318 115L318 115C318.179336 113.806158 319.512027 112.940982 321.012245 113.044467L321.012245 113.044467zM340 100L340 100C340.290192 98.2674713 341.768909 97 343.5 97 345.231091 97 346.709808 98.2674713 347 100L347 100C346.709808 98.2674713 345.231091 97 343.5 97 341.768909 97 340.290192 98.2674713 340 100zM252.9 111L252.9 111C252.67 110.31 252.39 109.65 252.1 109 252.39 109.65 252.72 110.31 252.9 111zM302 138C303.598405 137.186068 305.272283 136.516517 307 136 305.270665 136.51224 303.596375 137.181956 302 138z"/>
    <polygon points="316.5 118 316.5 117 316.5 118"/>
    <path fill="#539EB8" fill-rule="nonzero" d="M50.2261773 125.180403C52.3273679 125.424313 54.4088702 125.814625 56.4554284 126.348475 61.7183545 112.828394 70.9754948 101.222906 83 93.0700875 82.3325802 93.0700875 81.6534514 93 80.9743225 93 70.3443173 92.9952476 60.465832 98.4680241 54.8512791 107.472422 48.6280423 104.451323 41.283543 104.842118 35.4177647 108.506464 29.5519865 112.17081 25.9927391 118.591575 26 125.495782 26.0063302 126.671173 26.1160361 127.843744 26.3278664 129 33.7939479 125.572323 42.0658243 124.274512 50.2261773 125.250487L50.2261773 125.180403zM224.523987 31.5063839C225.453208 31.3770468 226.405955 31.2477097 227.40575 31.1301306 227.389133 31.1989982 227.365484 31.2659777 227.335176 31.3300151 228.271649 31.2829925 229.209893 31.2829925 230.146366 31.3300151L230.146366 31.3300151C231.724764 31.3933544 233.296855 31.5662199 234.851286 31.8473635 235.839319 32.0237322 236.803828 32.2353747 237.768336 32.4940489L237.768336 32.4940489C240.823858 33.3023119 243.755794 34.5205301 246.484201 36.1154873 248.101724 37.0648805 249.643273 38.138059 251.095022 39.3253985 261.15644 47.7370665 265.786782 60.9907155 263.15138 73.8348842 262.808098 75.4328104 262.352151 77.0044564 261.786953 78.5380509L261.66933 78.8555147 261.504658 79.3140734C258.269256 87.5924502 252.026875 94.3448102 244.02588 98.2208036 247.724955 100.694977 250.664782 104.146561 252.518261 108.191517 252.859367 108.955782 253.188712 109.731804 253.459245 110.5431 254.04736 110.178605 254.635475 109.849383 255.258877 109.531919 262.340829 105.89916 270.639601 105.470266 278.058566 108.353595 285.477531 111.236924 291.307098 117.156698 294.074467 124.617327 294.345 124.781938 294.60377 124.970064 294.862541 125.146433 295.299339 125.436191 295.719522 125.750229 296.121107 126.087066 296.379878 126.298709 296.638648 126.486835 296.873894 126.710236 298.156299 127.911826 299.229584 129.318498 300.049715 130.872538 300.372948 131.46659 300.652074 132.083583 300.884838 132.718531 301.149792 133.403983 301.365972 134.10729 301.531765 134.823198 301.651433 135.350817 301.74175 135.884662 301.802298 136.422275 301.802298 136.692707 301.872872 136.974897 301.896396 137.257087 303.616373 136.338521 305.420299 135.58651 307.28353 135.011325 307.871645 134.834956 308.45976 134.658588 309.059637 134.505735 310.235867 134.223545 311.353286 134.011902 312.588327 133.835533 314.239795 133.594255 315.90653 133.47244 317.575542 133.471038L317.575542 133.471038C318.17542 133.471038 318.751772 133.471038 319.339887 133.471038 321.046883 133.551233 322.745437 133.759543 324.421201 134.094208 326.326069 132.436138 328.413599 131.000264 330.643458 129.814326 333.912016 128.079842 337.408261 126.813272 341.029569 126.051793 343.301192 125.584139 345.605666 125.293239 347.922276 125.181707 348.580965 125.181707 349.251416 125.181707 349.921867 125.181707L349.921867 125.181707C355.151029 125.164924 360.337198 126.126001 365.212857 128.015365 371.015768 130.176474 376.066234 133.975166 379.75106 138.950227 380.150978 139.502849 380.503847 140.126019 380.844954 140.655125 381.357928 141.521991 381.813707 142.421426 382.209381 143.347688 382.468152 143.9591 382.703398 144.52348 382.915119 145.205439 383.320145 145.01865 383.736577 144.857638 384.161923 144.723364L384.985284 144.488206C385.622671 144.343191 386.272658 144.260496 386.926063 144.24129 390.515705 144.115334 393.915125 145.854441 395.912461 148.838635 396.688772 148.732814 397.465084 148.650509 398.264921 148.615235 406.656146 148.256272 414.646518 152.218907 419.437061 159.115054 421.203958 161.664614 422.462005 164.531094 423.142185 167.557239 423.259808 168.051071 423.353907 168.544904 423.436243 169.038736 423.646195 170.345186 423.752387 171.666197 423.753825 172.989396L423.753825 172.989396C423.961902 173.401925 424.112298 173.841073 424.200792 174.294525 424.261367 174.526776 424.308495 174.762325 424.34194 175 427.352991 160.289831 419.814583 145.447723 406.157424 139.197143 406.028039 138.25651 405.863366 137.315877 405.639883 136.363486 401.625206 118.811837 385.031273 107.099559 367.141875 109.19094 367.349429 108.352215 367.456045 107.491714 367.459457 106.627714 367.488424 100.668488 362.900629 95.7023696 356.955723 95.2578086 356.955723 94.916829 356.955723 94.5876073 356.955723 94.2466277 357.00254 87.0574533 353.108292 80.4196071 346.80877 76.9508872 340.509249 73.4821672 332.81556 73.739321 326.761899 77.6209334 313.375556 71.9102395 297.88313 74.5795584 287.181759 84.4405251 283.791362 82.0621736 279.979249 80.3503546 275.948762 79.3963789 283.098168 74.00885 286.084564 64.7082801 283.407413 56.167813 280.730261 47.6273458 272.968381 41.693491 264.02179 41.3477602 263.388377 40.4817388 262.705005 39.6533605 261.97515 38.8668398 261.089766 37.6079736 259.952189 36.5468983 258.634657 35.7509918 252.111144 30.5610832 243.672796 28.4201685 235.462926 29.8720335 225.930561 19.0641366 212.401098 12.6097817 198 12 208.999351 14.8975319 218.482836 21.8719174 224.523987 31.5063839zM347.416497 99.855154L340.041535 99.855154C340.347272 98.0578139 341.905197 96.7429283 343.729016 96.7429283 345.552835 96.7429283 347.110761 98.0578139 347.416497 99.855154zM327.502923 99.855154C324.566457 96.8525289 324.613802 92.0409649 327.608784 89.0966602L332.13727 93.4235735C332.206589 92.2586806 332.519112 91.121198 333.054729 90.0843252 334.143718 88.054483 335.99632 86.5415403 338.203321 85.8796869 340.410321 85.2178334 342.790113 85.4615311 344.817029 86.5569502L337.936084 99.8669119 343.74666 99.8669119C343.74666 101.595326 339.112314 102.994518 333.384074 102.994518 327.655833 102.994518 323.021487 101.595326 323.021487 99.8669119L327.608784 99.8669119 327.502923 99.855154zM309.471318 114.105749C309.471318 111.871745 312.694188 110.061026 316.669845 110.061026L316.669845 114.505518 318.869395 114.505518C319.122159 113.112921 320.335297 112.100463 321.751159 112.100463 323.16702 112.100463 324.380158 113.112921 324.632922 114.505518L324.632922 114.505518 324.632922 114.505518 321.751159 114.505518C321.751159 115.528457 319.622182 116.398543 316.669845 116.75128L316.669845 118.126957 316.669845 118.126957 316.669845 123.429777C312.694188 123.429777 309.471318 121.360384 309.471318 118.808916 309.485189 118.03577 309.767999 117.291591 310.271154 116.704249 307.507013 116.316237 305.566234 115.469667 305.566234 114.49376L309.471318 114.49376C309.460625 114.364644 309.460625 114.234865 309.471318 114.105749zM408.102762 86C403.51768 86 399.502762 88.7807692 397.222099 92.9230769L396.925138 92.9230769C393.100276 92.9230769 390 96.5230769 390 101L433 101 433 101C433 95.3230769 429.020718 90.7307692 424.138674 90.7307692 422.168267 90.7542704 420.276672 91.4859631 418.829006 92.7846154 416.560221 88.6769231 412.604696 86 408.102762 86z"/>
    <path fill="#539EB8" fill-rule="nonzero" d="M318.396572,63 L332,63 C332,58.0511323 326.647448,54.0020587 320.04441,54.0020587 C316.868602,53.9479399 313.772758,54.9623072 311.291001,56.8701525 C310.928711,56.8701525 310.554733,56.8026679 310.180756,56.8026679 C305.634593,56.8026679 302,59.5695349 302,62.9662577 L318.443319,62.9662577 L318.396572,63 Z"/>
    <path fill="#04223F" fill-rule="nonzero" d="M309.925926 116.956904C309.397816 117.57198 309.10098 118.351297 309.08642 119.16095 309.08642 121.832894 312.469136 124 316.641975 124L316.641975 118.44679 316.641975 118.44679 316.641975 117.006157C319.740741 116.636763 321.938272 115.774846 321.975309 114.654354L325 114.654354 325 114.654354C324.735312 113.202363 323.467352 112.146939 321.987654 112.146939 320.507957 112.146939 319.239996 113.202363 318.975309 114.654354L316.654321 114.654354 316.654321 110C312.481481 110 309.098765 111.896218 309.098765 114.235708 309.086851 114.375004 309.086851 114.515058 309.098765 114.654354L305 114.654354C305.024691 115.664028 307.024691 116.550572 309.925926 116.956904zM275.249012 32.0219815C273.710106 34.7369042 274.585337 38.1323338 277.264822 39.8422507L277.727273 39.1354625C278.775587 41.4819696 281.177629 43.0020617 283.833992 43L283.833992 32.0675807C285.909091 31.6685874 287.272727 30.9959986 287.284585 30.2208116L290 30.2208116C289.783742 28.9405633 288.633703 28 287.284585 28 285.935467 28 284.785428 28.9405633 284.56917 30.2208116L283.478261 30.2208116C281.503987 28.9269376 278.90708 28.9269376 276.932806 30.2208116L272 30.2208116C272 30.9617992 273.29249 31.6229881 275.249012 32.0219815zM319.569705 42C327.066574 42 333.139392 40.1321012 333.16293 37.8331489L338 37.8331489C338 35.558144 335.834499 33.7022189 333.16293 33.7022189 330.491361 33.7022189 328.32586 35.5461703 328.32586 37.8331489L325.077609 37.8331489 333.492463 21.3573239C328.165659 18.4129503 321.501369 20.4175294 318.604644 25.8354915 317.932432 27.1348855 317.531733 28.5617235 317.427742 30.02629L312.296446 24.5064096C308.599205 27.9823628 308.090533 33.7423501 311.119544 37.8331489L306 37.8331489C305.988248 40.1321012 312.072835 42 319.569705 42zM343.505582 97.0107954C341.731446 96.8658891 340.171064 98.1964245 340 100L347 100C346.834645 98.1981328 345.27752 96.8661321 343.505582 97.0107954L343.505582 97.0107954zM360.3127 60.9125111C359.564839 61.5525191 358.920656 62.3034194 358.402862 63.1387426 355.484187 67.996442 356.918444 74.278349 361.660132 77.4052733L362.456875 76.1231504C364.25097 80.2990136 368.378327 83.0056444 372.943412 83L372.943412 61.297148C377.372363 60.6910535 380.465598 59.362308 380.465598 57.8004493L385 57.8004493C385 55.7024301 382.972993 54.012359 380.465598 54.012359 378.202558 53.8407045 376.206685 55.4763934 375.942913 57.7188596L355.004989 57.7188596C354.998337 57.7495892 354.998337 57.7813754 355.004989 57.8121049L355.004989 57.8121049C355.004989 59.0825721 357.102297 60.2131714 360.3127 60.9125111z"/>
    <path fill="#04223F" fill-rule="nonzero" d="M333.413044 103C339.188733 103 343.861466 101.639253 343.861466 99.9583312L338.026479 99.9583312 345 87.0140868C342.956294 85.9487665 340.556791 85.7117649 338.331509 86.3554326 336.106228 86.9991003 334.238279 88.470472 333.140271 90.4445403 332.600217 91.452923 332.285105 92.559151 332.215212 93.6920362L327.649216 89.4840133C324.629425 92.3474175 324.581688 97.0267743 327.542478 99.9468964L327.625496 100.015505 323 100.015505C322.964623 101.639253 327.637356 103 333.413044 103zM387.188976 42C400.511811 42 411.307087 38.7161962 411.366142 34.6709306L420 34.6709306C420 30.6375629 416.137795 27.3775548 411.389764 27.3775548 406.641732 27.3775548 402.791339 30.6256651 402.767717 34.6352371L395.917323 34.6352371 395.917323.00062528798 395.917323.00062528798C388.599918-.0593888447 381.926459 4.20503013 378.862205 10.8990466L377.480315 8.84072031C373.824801 11.1161115 371.216994 14.7618509 370.231188 18.9750682 369.245383 23.1882855 369.962426 27.6234496 372.224409 31.303842 373.02089 32.5482234 373.99153 33.6702605 375.106299 34.6352371L363 34.6352371C363 38.7042984 373.830709 42 387.188976 42z"/>
    <path fill="#04223F" fill-rule="nonzero" d="M191.176433,178 L425.653338,178 C425.948567,176.835008 426.056296,175.629882 425.972418,174.430537 L425.972418,174.430537 C425.938815,174.190027 425.891466,173.951667 425.830605,173.716645 C425.73629,173.259255 425.585423,172.815565 425.381528,172.395944 L425.381528,172.395944 C425.380084,171.056956 425.27339,169.720184 425.062448,168.398146 C424.979723,167.898421 424.885181,167.398696 424.767003,166.898971 C424.083614,163.836719 422.819631,160.936037 421.044397,158.356057 C416.231252,151.377627 408.203179,147.367711 399.772363,147.730957 C399.004206,147.730957 398.224231,147.849939 397.408803,147.957023 L397.408803,147.957023 C395.402044,144.937222 391.986585,143.177364 388.380007,143.304823 C387.723519,143.324259 387.070465,143.40794 386.43007,143.554686 L385.602824,143.79265 C385.175471,143.928525 384.757075,144.091459 384.350138,144.280477 L384.350138,144.280477 C384.137418,143.637973 383.901062,143.019266 383.64107,142.40056 C383.24353,141.463246 382.7856,140.553078 382.270206,139.67587 C381.92749,139.092858 381.572956,138.486049 381.171151,137.95063 C377.468938,132.916207 372.394643,129.07219 366.564354,126.885296 C361.66569,124.973389 356.455052,124.000844 351.201218,124.017827 L351.201218,124.017827 C350.527604,124.017827 349.853989,124.017827 349.192193,124.017827 C346.864652,124.13069 344.549305,124.425062 342.266964,124.898295 C338.62857,125.668859 335.115829,126.950542 331.831849,128.705721 C329.59147,129.905809 327.494091,131.358816 325.580235,133.036669 L325.580235,133.036669 C323.896564,132.698012 322.189996,132.487216 320.474947,132.406064 C319.884057,132.406064 319.293167,132.406064 318.702277,132.406064 L318.702277,132.406064 C317.02539,132.407483 315.350791,132.530751 313.691531,132.774909 C312.509752,132.953382 311.327972,133.16755 310.146192,133.453107 C309.543485,133.607783 308.964413,133.786257 308.361705,133.96473 C306.491434,134.551636 304.679444,135.312433 302.949154,136.237288 L302.949154,136.237288 C302.949154,135.951731 302.890065,135.666174 302.854612,135.392515 C302.783705,134.845197 302.70098,134.309778 302.582802,133.774358 C302.416227,133.049908 302.199027,132.33821 301.932824,131.644579 C301.698961,131.002054 301.418518,130.3777 301.09376,129.77656 C300.26976,128.203978 299.19141,126.780521 297.902955,125.564594 C297.666599,125.338528 297.406607,125.148157 297.146616,124.933989 C296.743136,124.593133 296.32097,124.275348 295.882112,123.982133 C295.62212,123.803659 295.362129,123.613288 295.090319,123.446713 C292.303645,115.902111 286.44614,109.916955 278.994521,107.000143 C271.542903,104.083332 263.208179,104.513177 256.09159,108.181311 C255.477065,108.502563 254.90981,108.835713 254.283467,109.204557 L254.283467,109.204557 C254.011658,108.383581 253.68076,107.598299 253.338043,106.824916 C251.475819,102.731697 248.522122,99.2389291 244.805594,96.7352347 C252.824441,92.8225141 259.085776,86.0130705 262.343205,77.6624062 L262.508654,77.1983761 L262.626832,76.8771244 C263.638611,74.131068 264.286294,71.2626695 264.553133,68.3461088 C265.696906,56.4829913 260.941139,44.8177771 251.849001,37.1847003 C250.390402,35.9831938 248.84158,34.8972104 247.216425,33.9364893 C244.475145,32.3225016 241.529376,31.089748 238.459437,30.271841 C237.490378,30.0100804 236.521319,29.7959127 235.528624,29.6174396 C233.966859,29.3329415 232.387351,29.1580134 230.801505,29.0939184 L230.801505,29.0939184 C229.860614,29.0463347 228.917943,29.0463347 227.977052,29.0939184 C228.007503,29.0291169 228.031263,28.9613381 228.047958,28.8916488 C227.043446,29.0106309 226.086204,29.1415112 225.152598,29.2723915 C216.547026,15.3921086 201.164297,7.27603062 184.930677,8.05091221 C168.697057,8.8257938 154.145987,18.3707059 146.883331,33.008429 L146.221534,33.008429 C118.600163,33.008429 96.2086182,55.5523331 96.2086182,83.3616482 C96.2086182,83.6591034 96.2086182,83.9446604 96.2086182,84.2421156 C78.132352,91.8972829 63.9261069,106.625413 56.855355,125.041073 C53.0827451,124.0643 49.2046814,123.560757 45.3093676,123.541899 C31.7622509,123.570434 18.935442,129.687914 10.3320006,140.223628 C1.72855922,150.759342 -1.75268976,164.612594 0.838998548,178 L191.176433,178 Z"/>
    <path fill="#49AACC" fill-rule="nonzero" d="M113.741508,17 L139,17 C139,12.5576923 135.90058,8.92307692 132.076774,8.92307692 L131.815521,8.92307692 C129.523612,4.74615385 125.521679,2 120.937862,2 C116.354046,2 112.48274,4.67692308 110.167081,8.73846154 C108.72592,7.4377243 106.837626,6.70546857 104.870754,6.68461538 C99.9781828,6.68461538 96.0118752,11.3 96,16.9653846 L96,16.9653846 L113.741508,16.9653846 L113.741508,17 Z"/>
  </g>
</svg>
