<svg xmlns="http://www.w3.org/2000/svg" width="24" height="24" viewBox="0 0 24 24">
  <g fill="none" fill-rule="evenodd">
    <circle cx="12" cy="12" r="8" fill="#999"/>
    <path fill="#EEE" fill-rule="nonzero" d="M5.50089474,4.00047147 L7.75234401,1.74872756 C8.082552,1.41852665 8.082552,0.878135548 7.75234401,0.547934637 L7.45231079,0.247907849 C7.1221028,-0.0826359496 6.58170012,-0.0826359496 6.25149213,0.247907849 L4.00004286,2.49965175 L1.7482507,0.247907849 C1.41838561,-0.0822930619 0.87798292,-0.0822930619 0.547774932,0.247907849 L0.247398819,0.547934637 C-0.0824662731,0.878135548 -0.0824662731,1.41852665 0.247398819,1.74872756 L2.49884809,4.00012858 L0.247398819,6.25187249 C-0.0824662731,6.5820734 -0.0824662731,7.12246451 0.247398819,7.45232253 L0.547774932,7.75234932 C0.87798292,8.08255023 1.41838561,8.08255023 1.7482507,7.75234932 L4.00004286,5.50129119 L6.25149213,7.75234932 C6.58170012,8.08255023 7.1221028,8.08255023 7.45231079,7.75234932 L7.75234401,7.45232253 C8.082552,7.12212162 8.082552,6.58173051 7.75234401,6.25187249 L5.50089474,4.00047147 Z" transform="translate(8 8)"/>
  </g>
</svg>
