<svg xmlns="http://www.w3.org/2000/svg" width="24" height="24" viewBox="0 0 24 24">
  <g fill="none" fill-rule="evenodd">
    <circle cx="12" cy="12" r="8" fill="#999"/>
    <path fill="#EEE" fill-rule="nonzero" d="M3.74994527 7L2.24996716 7C2.18337638 7 2.12501642 7.02515104 2.07501861 7.0750591 2.02497702 7.1250985 2 7.18336836 2 7.25004378L2 8.75002189C2 8.81669731 2.02506458 8.87505472 2.07501861 8.92500657 2.12501642 8.97489274 2.18331071 9 2.24996716 9L3.74994527 9C3.81653605 9 3.87504925 8.97495841 3.92485005 8.92500657 3.9749792 8.87505472 4 8.81669731 4 8.75002189L4 7.25004378C4 7.18336836 3.97504488 7.1250985 3.92485005 7.0750591 3.87504925 7.0250197 3.81653605 7 3.74994527 7zM5.73379046 1.61723936C5.55627194 1.28000469 5.32692603.995543567 5.04550256.763339979 4.76426103.53123021 4.44806613.345866072 4.09753188.207529025 3.74692941.0692388882 3.3985101 0 3.05216025 0 1.73637193 0 .732184776.593760994.0395760392 1.78130644.00498653671 1.83931043-.00695264069 1.9017943.0038494722 1.96878152.014719809 2.03567491.0482632121 2.0914976.104525164 2.13613229L1.16936334 2.9732614C1.22562529 3.00891287 1.27974956 3.02676205 1.33171341 3.02676205 1.40964781 3.02676205 1.47668914 2.99099332 1.53301931 2.91957312 1.84462047 2.51783746 2.07624051 2.26114694 2.22772025 2.14947813 2.41388045 2.02005395 2.64754721 1.95536531 2.92890245 1.95536531 3.19292883 1.95536531 3.42552675 2.02680896 3.62687813 2.16955553 3.82813855 2.31244283 3.9286778 2.47763575 3.9286778 2.66513428 3.9286778 2.87486807 3.87466723 3.04458778 3.76641869 3.17405887 3.65823837 3.30348305 3.47637628 3.42842735 3.2209461 3.54900903 2.88341987 3.70524217 2.57379721 3.94746101 2.29257841 4.27559517 2.01115494 4.60375279 2 4.94984764 2 5.32036482L2 5.62169002C2 5.70659678 2.02260484 5.79026044 2.06813291 5.87284517 2.11361549 5.95550027 2.16876312 5.99675745 2.23373498 5.99675745L3.74029446 6C3.80956444 6 3.87010175 5.96547438 3.92208834 5.89604785 3.97391574 5.82704351 4 5.75447402 4 5.67869122 4 5.56711622 3.98175597 5.41740354 4.10069292 5.22999883 4.21974357 5.04250029 4.36794856 4.8972675 4.54555804 4.79455846 4.71427567 4.69637622 4.84617515 4.61723936 4.94150664 4.55688988 5.0369291 4.49670459 5.16127847 4.39939017 5.31498685 4.26555647 5.46862701 4.13158203 5.58767767 3.99875689 5.67197963 3.86710449 5.75641804 3.73542864 5.83221476 3.56463 5.89930157 3.35475548 5.96652482 3.14495133 6 2.9194793 6 2.67843321 6 2.30789258 5.91114978 1.9541222 5.73379046 1.61723936z" transform="translate(9 8)"/>
  </g>
</svg>
