<svg xmlns="http://www.w3.org/2000/svg" width="16" height="16" viewBox="0 0 16 16">
  <path fill="#A5DDF1" d="M8.57952685,1.37620917 L10.2429656,4.90369756 C10.3369312,5.10295441 10.5185555,5.24105328 10.7286459,5.27298678 L14.4476796,5.83873515 C14.6907017,5.87567445 14.8925991,6.05385549 14.968446,6.29832852 C15.0442929,6.54280156 14.9809285,6.8111458 14.8050061,6.99048543 L12.1134474,9.73618788 C11.9612289,9.89146488 11.8922145,10.1149287 11.9276892,10.3336668 L12.563008,14.210866 C12.6044673,14.4641361 12.50497,14.7200818 12.3063462,14.8710996 C12.1077224,15.0221175 11.8444149,15.0420199 11.6271221,14.9224397 L8.30024457,13.0915213 C8.1122327,12.9882797 7.8877673,12.9882797 7.69975543,13.0915213 L4.37287788,14.9224397 C4.15558509,15.0420199 3.8922776,15.0221175 3.69365379,14.8710996 C3.49502998,14.7200818 3.39553267,14.4641361 3.43699201,14.210866 L4.07231081,10.3336668 C4.10821631,10.1146369 4.03873384,9.89115119 3.88655262,9.73618788 L1.19499388,6.99048543 C1.01907155,6.8111458 0.95570708,6.54280156 1.03155399,6.29832852 C1.1074009,6.05385549 1.30929828,5.87567445 1.55232039,5.83873515 L5.27135411,5.27298678 C5.48144451,5.24105328 5.66306881,5.10295441 5.75703438,4.90369756 L7.42047315,1.37620917 C7.65912082,0.874596944 8.34281416,0.874596944 8.57952685,1.37620917 Z"/>
</svg>
