<svg xmlns="http://www.w3.org/2000/svg" width="16" height="16" viewBox="0 0 16 16">
  <path fill="#999" d="M12.4378863,7.2446972 L12.4534961,7.24798606 L5.7619528,7.24798606 L7.86552957,5.21742705 C7.96853768,5.11829136 8.02504173,4.98399616 8.02504173,4.84304494 C8.02504173,4.70209371 7.96853768,4.56873819 7.86552957,4.46936758 L7.53821257,4.15395006 C7.43528576,4.05481437 7.29813132,4 7.15187119,4 C7.00552976,4 6.86829402,4.05442283 6.76536721,4.15355853 L3.15943304,7.62636179 C3.05609973,7.72588902 2.99959567,7.85846148 3,7.99949101 C2.99959567,8.1413036 3.05609973,8.27395437 3.15943304,8.37332498 L6.76536721,11.8464415 C6.86829402,11.9454989 7.00544846,12 7.15187119,12 C7.29813132,12 7.43528576,11.9454206 7.53821257,11.8464415 L7.86552957,11.531024 C7.96853768,11.4320449 8.02504173,11.2998639 8.02504173,11.1589127 C8.02504173,11.0180398 7.96853768,10.8928281 7.86552957,10.7937707 L5.73821296,8.75185733 L12.445366,8.75185733 C12.746748,8.75185733 13,8.5016689 13,8.2115443 L13,7.76543367 C13,7.47530906 12.7392683,7.2446972 12.4378863,7.2446972 Z" transform="matrix(-1 0 0 1 16 0)"/>
</svg>
