<svg width="20" height="12" viewBox="0 0 20 13" fill="none" xmlns="http://www.w3.org/2000/svg">
<path d="M0.94221 12.4741C1.48443 12.4741 1.78664 12.2153 1.99997 11.5424L2.83552 9.10963H7.22657L8.06212 11.5424C8.26656 12.2067 8.58656 12.4741 9.12877 12.4741C9.70654 12.4741 10.0888 12.1463 10.0888 11.6287C10.0888 11.413 10.0354 11.1801 9.93765 10.8954L6.60436 1.74227C6.30214 0.870956 5.86659 0.5 5.05771 0.5C4.24883 0.5 3.81328 0.879583 3.50218 1.74227L0.168887 10.8954C0.0533327 11.2232 0 11.4475 0 11.6546C0 12.1549 0.382217 12.4741 0.94221 12.4741ZM3.31551 7.60856L4.9866 2.63084H5.08438L6.74658 7.60856H3.31551Z" fill="#30578C"/>
<path d="M18.0089 11.1887H18.1067V11.5942C18.1511 12.1377 18.4978 12.4569 19.04 12.4569C19.6533 12.4569 20 12.0773 20 11.4216V6.20237C20 4.21819 18.6756 3.11395 16.3023 3.11395C15.3245 3.11395 14.5778 3.27786 14.009 3.5798C13.2179 3.99389 12.8445 4.5115 12.8445 5.03774C12.8445 5.45183 13.129 5.73652 13.5645 5.73652C13.9023 5.73652 14.1334 5.65025 14.3734 5.42595C14.9156 4.89109 15.4312 4.63228 16.1778 4.63228C17.3778 4.63228 18.0267 5.16715 18.0267 6.19375V7.00467H15.6801C13.5823 7.0133 12.3201 8.0399 12.3201 9.72214C12.3201 11.3785 13.5556 12.5 15.3867 12.5C16.5512 12.5 17.4934 12.0341 18.0089 11.1887ZM14.3023 9.62725C14.3023 8.79044 14.9067 8.31596 15.9556 8.31596H18.0267V9.29943C18.0267 10.2829 17.1467 11.0421 16.0001 11.0421C14.9867 11.0421 14.3023 10.4727 14.3023 9.62725Z" fill="#30578C"/>
</svg>
