<svg width="16" height="12" viewBox="0 0 16 13" fill="none" xmlns="http://www.w3.org/2000/svg">
<path d="M15.7347 7.56903L12.7046 5.91667L15.7347 4.26431C15.986 4.12726 16.0748 3.81185 15.9314 3.56528L15.5163 2.85136C15.373 2.6048 15.0535 2.52342 14.8083 2.67103L11.8523 4.45074L11.9263 1.01869C11.9325 0.734038 11.7018 0.5 11.4151 0.5H10.5849C10.2982 0.5 10.0675 0.734038 10.0737 1.01869L10.1477 4.45074L7.19166 2.67105C6.9465 2.52344 6.62704 2.60482 6.48368 2.85138L6.06862 3.5653C5.92527 3.81187 6.01403 4.12728 6.26535 4.26433L9.29542 5.91667L6.26533 7.56903C6.01401 7.70607 5.92524 8.02149 6.06862 8.26805L6.48368 8.98197C6.62704 9.22853 6.9465 9.30991 7.19166 9.16231L10.1477 7.38259L10.0737 10.8146C10.0675 11.0993 10.2982 11.3333 10.5849 11.3333H11.4151C11.7018 11.3333 11.9325 11.0993 11.9264 10.8146L11.8523 7.38259L14.8083 9.16229C15.0535 9.30989 15.373 9.22851 15.5163 8.98195L15.9314 8.26803C16.0747 8.02146 15.986 7.70607 15.7347 7.56903Z" fill="#30578C"/>
<circle cx="1.5" cy="11" r="1.5" fill="#30578C"/>
</svg>
