<svg width="28" height="28" viewBox="0 0 28 28" fill="none" xmlns="http://www.w3.org/2000/svg">
<rect width="28" height="28" rx="6" fill="#DC3232"/>
<path d="M20.2582 8.86608L15.3082 6.00775C14.4999 5.54108 13.4999 5.54108 12.6832 6.00775L7.74159 8.86608C6.93326 9.33274 6.43326 10.1994 6.43326 11.1411V16.8411C6.43326 17.7744 6.93326 18.6411 7.74159 19.1161L12.6916 21.9744C13.4999 22.4411 14.4999 22.4411 15.3166 21.9744L20.2666 19.1161C21.0749 18.6494 21.5749 17.7827 21.5749 16.8411V11.1411C21.5666 10.1994 21.0666 9.34108 20.2582 8.86608ZM13.3749 10.4494C13.3749 10.1077 13.6582 9.82441 13.9999 9.82441C14.3416 9.82441 14.6249 10.1077 14.6249 10.4494V14.8244C14.6249 15.1661 14.3416 15.4494 13.9999 15.4494C13.6582 15.4494 13.3749 15.1661 13.3749 14.8244V10.4494ZM14.7666 17.8494C14.7249 17.9494 14.6666 18.0411 14.5916 18.1244C14.4332 18.2827 14.2249 18.3661 13.9999 18.3661C13.8916 18.3661 13.7832 18.3411 13.6832 18.2994C13.5749 18.2577 13.4916 18.1994 13.4082 18.1244C13.3332 18.0411 13.2749 17.9494 13.2249 17.8494C13.1832 17.7494 13.1666 17.6411 13.1666 17.5327C13.1666 17.3161 13.2499 17.0994 13.4082 16.9411C13.4916 16.8661 13.5749 16.8077 13.6832 16.7661C13.9916 16.6327 14.3582 16.7077 14.5916 16.9411C14.6666 17.0244 14.7249 17.1077 14.7666 17.2161C14.8082 17.3161 14.8332 17.4244 14.8332 17.5327C14.8332 17.6411 14.8082 17.7494 14.7666 17.8494Z" fill="white"/>
</svg>
