<svg width="25" height="21" viewBox="0 0 25 21" fill="none" xmlns="http://www.w3.org/2000/svg">
<path d="M1.23969 14.3084L5.85791 10.568C5.94467 10.4931 6.07736 10.4931 6.16923 10.568L10.7874 14.3049C11.0988 14.5596 11.5632 14.5141 11.8235 14.2095C11.8235 14.1995 11.8286 14.1945 11.8337 14.1895C12.094 13.8649 12.0429 13.3955 11.7214 13.1308L7.10267 9.38951C6.45962 8.87016 5.53537 8.87016 4.89742 9.38951L0.280221 13.1253C-0.0464073 13.385 -0.0923394 13.8544 0.167943 14.179C0.418017 14.4886 0.918167 14.5531 1.23969 14.3084Z" fill="#666666" fill-opacity="0.3"/>
<path d="M11.2636 20.0062V16.5106C11.2533 16.206 11.115 15.9164 10.8854 15.7166L6.64941 12.221C6.28196 11.9164 5.74098 11.9164 5.37352 12.221L1.13756 15.7166C0.902797 15.9164 0.770105 16.201 0.759898 16.5056V20.0012H0.754794C0.744587 20.5456 1.1937 20.99 1.74999 21H4.49571C4.7713 20.995 4.99586 20.7703 4.99076 20.5006V17.7541C4.98565 17.4794 5.21021 17.2547 5.4858 17.2547H6.481C6.75659 17.2547 6.98115 17.4794 6.97604 17.7541V20.5006C6.97094 20.7703 7.1955 20.995 7.47109 21H10.2168C10.7731 20.99 11.2687 20.5506 11.2636 20.0062Z" fill="#666666" fill-opacity="0.3"/>
<path d="M14.2397 14.3084L18.8579 10.568C18.9447 10.4931 19.0774 10.4931 19.1692 10.568L23.7874 14.3049C24.0988 14.5596 24.5632 14.5141 24.8235 14.2095C24.8235 14.1995 24.8286 14.1945 24.8337 14.1895C25.094 13.8649 25.0429 13.3955 24.7214 13.1308L20.1027 9.38951C19.4596 8.87016 18.5354 8.87016 17.8974 9.38951L13.2802 13.1253C12.9536 13.385 12.9077 13.8544 13.1679 14.179C13.418 14.4886 13.9182 14.5531 14.2397 14.3084Z" fill="#666666"/>
<path d="M24.2636 20.0062V16.5106C24.2533 16.206 24.115 15.9164 23.8854 15.7166L19.6494 12.221C19.282 11.9164 18.741 11.9164 18.3735 12.221L14.1376 15.7166C13.9028 15.9164 13.7701 16.201 13.7599 16.5056V20.0012C13.7497 20.5456 14.1937 20.99 14.75 21H17.4957C17.7713 20.995 17.9959 20.7703 17.9908 20.5006V17.7541C17.9857 17.4794 18.2102 17.2547 18.4858 17.2547H19.481C19.7566 17.2547 19.9811 17.4794 19.976 17.7541V20.5006C19.9709 20.7703 20.1955 20.995 20.4711 21H23.2168C23.7731 20.99 24.2687 20.5506 24.2636 20.0062Z" fill="#666666"/>
<path d="M7.73969 5.30836L12.3579 1.56804C12.4447 1.49313 12.5774 1.49313 12.6692 1.56804L17.2874 5.30487C17.5988 5.55955 18.0632 5.51411 18.3235 5.20949C18.3235 5.1995 18.3286 5.19451 18.3337 5.18951C18.594 4.86492 18.5429 4.39551 18.2214 4.13084L13.6027 0.389513C12.9596 -0.129838 12.0354 -0.129838 11.3974 0.389513L6.78022 4.12534C6.45359 4.38502 6.40766 4.85443 6.66794 5.17903C6.91802 5.48864 7.41817 5.55306 7.73969 5.30836C7.73969 5.30836 7.73969 5.30836 7.71417 5.28889L7.73969 5.30836Z" fill="#666666" fill-opacity="0.3"/>
<path fill-rule="evenodd" clip-rule="evenodd" d="M17.3755 6.71659C17.5979 6.91005 17.7347 7.18783 17.7523 7.48188L17.7537 7.48188L17.7531 7.49624L17.7537 7.51059L17.7523 7.51059C17.7347 7.80464 17.5979 8.08243 17.3755 8.27589L13.1395 11.7715C12.7721 12.0761 12.2311 12.0761 11.8636 11.7715L7.62766 8.27589C7.39772 8.08024 7.2657 7.80314 7.25078 7.5056L7.25 7.5056L7.25035 7.49624L7.25 7.48688L7.25078 7.48688C7.2657 7.18934 7.39772 6.91224 7.62766 6.71659L11.8636 3.22096C12.2311 2.91634 12.7721 2.91634 13.1395 3.22096L17.3755 6.71659ZM12 6.99998C11.7239 6.99998 11.5 7.22384 11.5 7.49998V9.49998C11.5 9.77613 11.7239 9.99998 12 9.99998H13C13.2761 9.99998 13.5 9.77613 13.5 9.49998V7.49998C13.5 7.22384 13.2761 6.99998 13 6.99998H12Z" fill="#666666" fill-opacity="0.3"/>
</svg>
