<svg width="16" height="16" viewBox="0 0 16 16" fill="none" xmlns="http://www.w3.org/2000/svg">
<path d="M0 8C0 3.58172 3.58172 0 8 0C12.4183 0 16 3.58172 16 8C16 12.4183 12.4183 16 8 16C3.58172 16 0 12.4183 0 8Z" fill="#46B450"/>
<path d="M7.95048 11.2469C7.55481 11.645 6.91278 11.645 6.5173 11.2469L4.29676 9.01311C3.90108 8.61525 3.90108 7.96939 4.29676 7.57154C4.69225 7.17349 5.33427 7.17349 5.72995 7.57154L7.05295 8.90226C7.15283 9.00254 7.31495 9.00254 7.41502 8.90226L10.9973 5.29853C11.3928 4.90049 12.0348 4.90049 12.4305 5.29853C12.6205 5.48968 12.7273 5.74902 12.7273 6.01932C12.7273 6.28961 12.6205 6.54896 12.4305 6.7401L7.95048 11.2469Z" fill="white"/>
</svg>
