<svg height="24" viewBox="0 0 24 24" width="24" xmlns="http://www.w3.org/2000/svg"><path d="m6 11v-3c0-3.3137085 2.6862915-6 6-6s6 2.6862915 6 6v3h1c.5522847 0 1 .4477153 1 1v10c0 .5522847-.4477153 1-1 1h-14c-.55228475 0-1-.4477153-1-1v-10c0-.5522847.44771525-1 1-1zm3 0h6v-3c0-1.65685425-1.3431458-3-3-3s-3 1.34314575-3 3zm3.9685588 6.7502457c.6150975-.341113 1.0314412-.9970582 1.0314412-1.7502457 0-1.1045695-.8954305-2-2-2s-2 .8954305-2 2c0 .7531875.4163437 1.4091327 1.0314412 1.7502457-.0205254.079831-.0314412.1635179-.0314412.2497543v1c0 .5522847.4477153 1 1 1s1-.4477153 1-1v-1c0-.0862364-.0109158-.1699233-.0314412-.2497543z" fill="#b2b2b2" fill-rule="evenodd"/></svg>