<svg width="20" height="20" viewBox="0 0 20 20" fill="none" xmlns="http://www.w3.org/2000/svg">
<g clip-path="url(#clip0_2425_8873)">
<g clip-path="url(#clip1_2425_8873)">
<path fill-rule="evenodd" clip-rule="evenodd" d="M9.99998 2.36109C9.79738 2.36109 9.60309 2.44157 9.45983 2.58483C9.31657 2.72809 9.23609 2.92238 9.23609 3.12498V3.25789C9.23452 3.65267 9.11753 4.03838 8.89955 4.36753C8.68157 4.69668 8.3721 4.95491 8.00923 5.11043C7.94464 5.13812 7.87669 5.15669 7.80732 5.16576C7.4776 5.28122 7.12266 5.30968 6.77713 5.24703C6.37915 5.17487 6.01191 4.98514 5.72276 4.70231L5.71674 4.69641L5.67094 4.65055C5.59999 4.57952 5.51545 4.52288 5.42271 4.48444C5.32998 4.44599 5.23057 4.42621 5.13019 4.42621C5.0298 4.42621 4.9304 4.44599 4.83766 4.48444C4.74493 4.52288 4.66068 4.57922 4.58974 4.65025L4.58914 4.65085C4.51811 4.72179 4.46177 4.80604 4.42333 4.89877C4.38488 4.99151 4.3651 5.09091 4.3651 5.1913C4.3651 5.29169 4.38488 5.39109 4.42333 5.48382C4.46177 5.57656 4.51811 5.66081 4.58914 5.73175L4.64123 5.78384C4.92406 6.07299 5.11376 6.44026 5.18592 6.83824C5.25665 7.22831 5.21126 7.63037 5.05567 7.9946C4.91392 8.36627 4.66573 8.68813 4.34189 8.91975C4.01151 9.15605 3.61767 9.28749 3.21159 9.29699L3.19373 9.2972H3.12498C2.92238 9.2972 2.72809 9.37768 2.58483 9.52094C2.44157 9.6642 2.36109 9.85849 2.36109 10.0611C2.36109 10.2637 2.44157 10.458 2.58483 10.6012C2.72809 10.7445 2.92238 10.825 3.12498 10.825H3.25789C3.65267 10.8266 4.03838 10.9435 4.36753 11.1615C4.69554 11.3787 4.95312 11.6868 5.10881 12.0481C5.2708 12.4171 5.31895 12.8262 5.24703 13.2228C5.17487 13.6208 4.98514 13.9881 4.70231 14.2772L4.69641 14.2832L4.65054 14.329C4.57952 14.4 4.52288 14.4845 4.48444 14.5772C4.44599 14.67 4.42621 14.7694 4.42621 14.8698C4.42621 14.9702 4.44599 15.0696 4.48444 15.1623C4.52288 15.255 4.57922 15.3393 4.65025 15.4102L4.65085 15.4108C4.72179 15.4818 4.80604 15.5382 4.89877 15.5766C4.99151 15.6151 5.09091 15.6349 5.1913 15.6349C5.29168 15.6349 5.39109 15.6151 5.48382 15.5766C5.57656 15.5382 5.66081 15.4818 5.73175 15.4108L5.78384 15.3587C6.07299 15.0759 6.44026 14.8862 6.83824 14.814C7.2283 14.7433 7.63036 14.7887 7.99459 14.9443C8.36627 15.086 8.68813 15.3342 8.91975 15.6581C9.15605 15.9885 9.28749 16.3823 9.29699 16.7884L9.2972 16.8062V16.875C9.2972 17.0776 9.37768 17.2719 9.52094 17.4151C9.6642 17.5584 9.85849 17.6389 10.0611 17.6389C10.2637 17.6389 10.458 17.5584 10.6012 17.4151C10.7445 17.2719 10.825 17.0776 10.825 16.875V16.7451L10.825 16.7421C10.8266 16.3473 10.9435 15.9616 11.1615 15.6324C11.3788 15.3044 11.6869 15.0468 12.0481 14.8911C12.4172 14.7291 12.8262 14.681 13.2228 14.7529C13.6208 14.8251 13.9881 15.0148 14.2772 15.2977L14.2832 15.3035L14.329 15.3494C14.4 15.4204 14.4845 15.4771 14.5772 15.5155C14.67 15.554 14.7694 15.5738 14.8698 15.5738C14.9702 15.5738 15.0696 15.554 15.1623 15.5155C15.255 15.4771 15.3393 15.4207 15.4102 15.3497L15.4108 15.3491C15.4818 15.2782 15.5382 15.1939 15.5766 15.1012C15.6151 15.0084 15.6349 14.909 15.6349 14.8087C15.6349 14.7083 15.6151 14.6089 15.5766 14.5161C15.5382 14.4234 15.4818 14.3391 15.4108 14.2682L15.3587 14.2161C15.0759 13.927 14.8862 13.5597 14.814 13.1617C14.7421 12.7651 14.7903 12.3561 14.9522 11.987C15.1079 11.6258 15.3655 11.3176 15.6935 11.1004C16.0227 10.8824 16.4084 10.7654 16.8032 10.7639L16.8062 10.7639L16.875 10.7639C17.0776 10.7639 17.2719 10.6834 17.4151 10.5401C17.5584 10.3969 17.6389 10.2026 17.6389 9.99998C17.6389 9.79738 17.5584 9.60309 17.4151 9.45983C17.2719 9.31657 17.0776 9.23609 16.875 9.23609H16.7451L16.7421 9.23608C16.3473 9.23451 15.9616 9.11753 15.6324 8.89955C15.3033 8.68157 15.045 8.3721 14.8895 8.00923C14.8618 7.94464 14.8433 7.87669 14.8342 7.80732C14.7187 7.4776 14.6903 7.12266 14.7529 6.77713C14.8251 6.37915 15.0148 6.01191 15.2977 5.72276L15.3035 5.71674L15.3494 5.67094C15.4204 5.6 15.4771 5.51544 15.5155 5.42271C15.554 5.32998 15.5738 5.23057 15.5738 5.13019C15.5738 5.0298 15.554 4.9304 15.5155 4.83766C15.4771 4.74493 15.4207 4.66068 15.3497 4.58974L15.3491 4.58914C15.2782 4.51811 15.1939 4.46177 15.1012 4.42333C15.0084 4.38488 14.909 4.3651 14.8087 4.3651C14.7083 4.3651 14.6089 4.38488 14.5161 4.42333C14.4234 4.46177 14.3392 4.51811 14.2682 4.58914L14.2161 4.64123C13.927 4.92406 13.5597 5.11376 13.1617 5.18592C12.7651 5.25784 12.356 5.20969 11.9869 5.0477C11.6257 4.89201 11.3176 4.63443 11.1004 4.30642C10.8824 3.97727 10.7654 3.59156 10.7639 3.19678L10.7639 3.19373V3.12498C10.7639 2.92238 10.6834 2.72809 10.5401 2.58483C10.3969 2.44157 10.2026 2.36109 9.99998 2.36109ZM8.37953 1.50453C8.8093 1.07476 9.39219 0.833313 9.99998 0.833313C10.6078 0.833313 11.1907 1.07476 11.6204 1.50453C12.0502 1.9343 12.2916 2.51719 12.2916 3.12498V3.19182C12.2923 3.28826 12.3209 3.38244 12.3742 3.46286C12.4277 3.5436 12.5036 3.60693 12.5926 3.64508L12.6001 3.64831C12.6909 3.68837 12.7915 3.70036 12.8891 3.68266C12.9857 3.66515 13.0749 3.61943 13.1454 3.55131L13.1873 3.50943C13.4001 3.29636 13.6529 3.12733 13.9311 3.01201C14.2093 2.89668 14.5075 2.83732 14.8087 2.83732C15.1098 2.83732 15.408 2.89668 15.6862 3.01201C15.9644 3.12733 16.2172 3.29636 16.43 3.50943C16.6428 3.72214 16.8116 3.97467 16.9268 4.25262C17.0422 4.53082 17.1015 4.82903 17.1015 5.13019C17.1015 5.43135 17.0422 5.72956 16.9268 6.00776C16.8116 6.28583 16.6426 6.53847 16.4297 6.75124C16.4296 6.75134 16.4298 6.75114 16.4297 6.75124L16.3875 6.79341C16.3194 6.86397 16.2737 6.95315 16.2562 7.0497C16.2385 7.14732 16.2504 7.24801 16.2905 7.33877C16.3121 7.38769 16.3284 7.4386 16.3393 7.49066C16.3755 7.54392 16.4218 7.58989 16.476 7.62577C16.5564 7.67903 16.6506 7.70771 16.747 7.70831H16.875C17.4828 7.70831 18.0657 7.94976 18.4954 8.37953C18.9252 8.8093 19.1666 9.39219 19.1666 9.99998C19.1666 10.6078 18.9252 11.1907 18.4954 11.6204C18.0657 12.0502 17.4828 12.2916 16.875 12.2916H16.8081C16.7117 12.2923 16.6175 12.3209 16.5371 12.3742C16.4564 12.4277 16.393 12.5036 16.3549 12.5926L16.3516 12.6001C16.3116 12.6909 16.2996 12.7915 16.3173 12.8891C16.3348 12.9857 16.3805 13.0749 16.4486 13.1454L16.4905 13.1873C16.4906 13.1874 16.4904 13.1872 16.4905 13.1873C16.7035 13.4001 16.8727 13.653 16.988 13.9311C17.1033 14.2093 17.1626 14.5075 17.1626 14.8087C17.1626 15.1098 17.1033 15.408 16.988 15.6862C16.8726 15.9644 16.7036 16.2172 16.4905 16.43L15.9507 15.8896L16.4911 16.4294C16.2783 16.6425 16.0255 16.8115 15.7473 16.9268C15.4691 17.0422 15.1709 17.1015 14.8698 17.1015C14.5686 17.1015 14.2704 17.0422 13.9922 16.9268C13.7141 16.8116 13.4615 16.6426 13.2487 16.4297C13.2486 16.4296 13.2488 16.4298 13.2487 16.4297L13.2065 16.3875C13.136 16.3194 13.0468 16.2737 12.9503 16.2562C12.8526 16.2385 12.752 16.2504 12.6612 16.2905L12.6537 16.2938C12.5647 16.332 12.4888 16.3953 12.4353 16.476C12.382 16.5564 12.3534 16.6506 12.3528 16.747V16.875C12.3528 17.4828 12.1113 18.0657 11.6815 18.4954C11.2518 18.9252 10.6689 19.1666 10.0611 19.1666C9.4533 19.1666 8.87041 18.9252 8.44064 18.4954C8.01087 18.0657 7.76942 17.4828 7.76942 16.875V16.8172C7.7658 16.72 7.73372 16.626 7.6771 16.5468C7.61914 16.4658 7.53814 16.4041 7.44463 16.3697C7.42953 16.3641 7.4146 16.3581 7.39988 16.3516C7.30912 16.3116 7.20843 16.2996 7.11081 16.3173C7.01426 16.3348 6.92507 16.3805 6.85451 16.4487L6.81265 16.4905C6.81255 16.4906 6.81275 16.4904 6.81265 16.4905C6.59988 16.7035 6.34694 16.8727 6.06887 16.988C5.79067 17.1033 5.49246 17.1626 5.1913 17.1626C4.89014 17.1626 4.59193 17.1033 4.31373 16.988C4.03579 16.8727 3.78326 16.7039 3.57055 16.4911C3.35747 16.2783 3.18844 16.0255 3.07312 15.7473C2.95779 15.4691 2.89843 15.1709 2.89843 14.8698C2.89843 14.5686 2.95779 14.2704 3.07312 13.9922C3.18844 13.714 3.35747 13.4613 3.57055 13.2484L3.61242 13.2065C3.68054 13.136 3.72626 13.0468 3.74377 12.9503C3.76147 12.8526 3.74952 12.752 3.70946 12.6612L3.70615 12.6537C3.66801 12.5647 3.60471 12.4888 3.52397 12.4353C3.44355 12.382 3.34937 12.3534 3.25293 12.3528H3.12498C2.51719 12.3528 1.9343 12.1113 1.50453 11.6815C1.07476 11.2518 0.833313 10.6689 0.833313 10.0611C0.833313 9.4533 1.07476 8.87041 1.50453 8.44064C1.9343 8.01087 2.51719 7.76942 3.12498 7.76942H3.18276C3.27992 7.7658 3.37394 7.73372 3.45311 7.6771C3.53415 7.61914 3.59587 7.53814 3.63026 7.44463C3.63582 7.42953 3.64185 7.4146 3.64835 7.39988C3.68841 7.30912 3.70036 7.20843 3.68266 7.11081C3.66515 7.01426 3.61943 6.92508 3.5513 6.85452L3.50943 6.81265C3.29636 6.59982 3.12733 6.34707 3.01201 6.06887C2.89668 5.79067 2.83732 5.49246 2.83732 5.1913C2.83732 4.89014 2.89668 4.59193 3.01201 4.31373C3.12728 4.03565 3.2962 3.78302 3.50913 3.57025C3.72191 3.35732 3.97454 3.18839 4.25262 3.07312C4.53082 2.95779 4.82903 2.89843 5.13019 2.89843C5.43135 2.89843 5.72956 2.95779 6.00776 3.07312C6.28596 3.18844 6.53871 3.35747 6.75154 3.57055L6.79341 3.61241C6.86397 3.68054 6.95315 3.72626 7.0497 3.74377C7.14732 3.76147 7.24801 3.74952 7.33877 3.70946C7.38769 3.68787 7.4386 3.67153 7.49066 3.66064C7.54392 3.62448 7.5899 3.57814 7.62577 3.52397C7.67903 3.44355 7.70771 3.34937 7.70831 3.25293V3.12498C7.70831 2.51719 7.94976 1.9343 8.37953 1.50453ZM9.99998 8.4722C9.15621 8.4722 8.4722 9.15621 8.4722 9.99998C8.4722 10.8437 9.15621 11.5278 9.99998 11.5278C10.8437 11.5278 11.5278 10.8437 11.5278 9.99998C11.5278 9.15621 10.8437 8.4722 9.99998 8.4722ZM6.94442 9.99998C6.94442 8.31244 8.31244 6.94442 9.99998 6.94442C11.6875 6.94442 13.0555 8.31244 13.0555 9.99998C13.0555 11.6875 11.6875 13.0555 9.99998 13.0555C8.31244 13.0555 6.94442 11.6875 6.94442 9.99998Z" fill="white"/>
</g>
</g>
<defs>
<clipPath id="clip0_2425_8873">
<rect width="20" height="20" />
</clipPath>
<clipPath id="clip1_2425_8873">
<rect width="20" height="20" />
</clipPath>
</defs>
</svg>
