<svg xmlns="http://www.w3.org/2000/svg" width="16" height="16" viewBox="0 0 16 16" fill="none">
<mask id="mask0_3042_7615" style="mask-type:alpha" maskUnits="userSpaceOnUse" x="0" y="0" width="16" height="16">
<rect width="16" height="16" fill="#3B3F42"/>
</mask>
<g mask="url(#mask0_3042_7615)">
<path d="M3.38138 11.0674C3.07412 10.6012 2.84211 10.1113 2.68535 9.5978C2.52858 9.08427 2.4502 8.55649 2.4502 8.01447C2.4502 6.48789 2.98257 5.17883 4.04731 4.08729C5.11205 2.99573 6.39828 2.44995 7.90601 2.44995H8.0321L7.10673 1.5246L8.1437 0.49707L10.9799 3.3333L8.1437 6.16954L7.10673 5.142L8.0321 4.21665H7.93426C6.9048 4.21665 6.02787 4.58634 5.30348 5.3257C4.57909 6.06507 4.2169 6.96133 4.2169 8.01447C4.2169 8.32219 4.25494 8.62279 4.33103 8.91627C4.40711 9.20975 4.52123 9.4961 4.67341 9.77534L3.38138 11.0674ZM7.85673 15.5123L5.02048 12.6761L7.85673 9.8304L8.8937 10.8674L7.96833 11.7927H8.06616C9.09563 11.7927 9.97256 11.4215 10.6969 10.679C11.4213 9.93644 11.7835 9.03861 11.7835 7.98547C11.7835 7.67775 11.7455 7.37715 11.6694 7.08367C11.5933 6.79019 11.4792 6.50384 11.327 6.2246L12.619 4.94199C12.9263 5.40816 13.1583 5.89645 13.3151 6.40684C13.4718 6.91724 13.5502 7.44345 13.5502 7.98547C13.5502 9.51205 13.0179 10.8227 11.9531 11.9174C10.8884 13.0121 9.60215 13.5594 8.09441 13.5594H7.96833L8.8937 14.4753L7.85673 15.5123Z" fill="#3B3F42"/>
</g>
</svg>