<svg width="14" height="14" viewBox="0 0 14 14" fill="none" xmlns="http://www.w3.org/2000/svg">
<g id="icon-export">
<path id="Icon" d="M12.8333 5.25V1.75C12.8333 1.42334 12.5708 1.16667 12.25 1.16667C11.9233 1.16667 11.6666 1.42334 11.6666 1.75V5.25C11.6666 5.57084 11.9233 5.83334 12.25 5.83334C12.5708 5.83334 12.8333 5.57084 12.8333 5.25ZM12.25 1.16667H8.74997C8.4233 1.16667 8.16664 1.42334 8.16664 1.75C8.16664 2.07084 8.4233 2.33334 8.74997 2.33334H12.25C12.5708 2.33334 12.8333 2.07084 12.8333 1.75C12.8333 1.42334 12.5708 1.16667 12.25 1.16667ZM11.8358 1.33584L6.5858 6.58C6.35247 6.8075 6.35247 7.175 6.57997 7.4025C6.80747 7.63 7.17497 7.63 7.40247 7.4025L12.6525 2.1525C12.88 1.91917 12.88 1.55167 12.6525 1.32417C12.4191 1.09084 12.0516 1.09084 11.8241 1.31834L11.8358 1.33584ZM5.82747 1.16084H4.54414C3.19664 1.16084 2.88164 1.18417 2.43247 1.41167C1.98914 1.63334 1.6333 1.98917 1.41163 2.42667C1.1783 2.87 1.15497 3.19084 1.15497 4.5325V9.4325C1.15497 10.7742 1.1783 11.0892 1.4058 11.5383C1.62747 11.9758 1.9833 12.3317 2.4208 12.5533C2.86414 12.7808 3.18497 12.8042 4.52664 12.8042H9.42664C10.7683 12.8042 11.0833 12.775 11.5325 12.5475C11.97 12.32 12.3258 11.9642 12.5475 11.5267C12.775 11.0775 12.7983 10.7567 12.7983 9.415V8.13167C12.7983 7.805 12.5358 7.54834 12.215 7.54834C11.8883 7.54834 11.6316 7.805 11.6316 8.13167V9.415C11.6316 10.5175 11.6083 10.7858 11.5033 10.99C11.3866 11.2058 11.2116 11.3867 10.99 11.4975C10.78 11.6025 10.5175 11.62 9.40913 11.62H4.50914C3.4008 11.62 3.13247 11.5967 2.9283 11.4917C2.70663 11.375 2.5258 11.2 2.41497 10.9783C2.30413 10.7683 2.28664 10.5058 2.28664 9.3975V4.4975C2.28664 3.38917 2.30414 3.12084 2.40914 2.91667C2.51997 2.695 2.69497 2.51417 2.91664 2.40334C3.1208 2.2925 3.3833 2.275 4.49164 2.275H5.77497C6.0958 2.275 6.3583 2.0125 6.3583 1.69167C6.3583 1.365 6.0958 1.10834 5.77497 1.10834L5.82747 1.16084Z"/>
</g>
</svg>
