<svg width="20" height="20" viewBox="0 0 20 20" fill="none" xmlns="http://www.w3.org/2000/svg">
<g id="message-text-square-02">
<path id="Union" fill-rule="evenodd" clip-rule="evenodd" d="M6.46556 1.66669H13.5344H13.5344C14.2052 1.66668 14.7588 1.66667 15.2098 1.70352C15.6782 1.74179 16.1088 1.82392 16.5133 2.03C17.1405 2.34958 17.6504 2.85951 17.97 3.48672C18.1761 3.89117 18.2582 4.32175 18.2965 4.79017C18.3333 5.24116 18.3333 5.79479 18.3333 6.46558V11.0345C18.3333 11.7053 18.3333 12.2589 18.2965 12.7099C18.2582 13.1783 18.1761 13.6089 17.97 14.0133C17.6504 14.6405 17.1405 15.1505 16.5133 15.47C16.1088 15.6761 15.6782 15.7583 15.2098 15.7965C14.7588 15.8334 14.2052 15.8334 13.5344 15.8334H11.4031C10.8497 15.8334 10.6885 15.8373 10.5419 15.8674C10.3948 15.8976 10.2524 15.9475 10.1187 16.0158C9.98536 16.0839 9.85705 16.1815 9.4249 16.5273L7.41395 18.136L7.41392 18.1361C7.26086 18.2586 7.10486 18.3834 6.9677 18.4741C6.83651 18.5608 6.58215 18.7161 6.25133 18.7164C5.87065 18.7168 5.51054 18.5438 5.27305 18.2462C5.06667 17.9877 5.029 17.6921 5.01477 17.5355C4.9999 17.3717 4.99994 17.1719 4.99997 16.9758L4.99998 15.8265C4.67347 15.8157 4.39347 15.7884 4.13725 15.7198C2.98694 15.4115 2.08845 14.5131 1.78023 13.3628C1.66598 12.9364 1.66625 12.4442 1.6666 11.7813L1.66665 11.6667L1.66664 6.4656C1.66663 5.7948 1.66663 5.24116 1.70347 4.79017C1.74174 4.32175 1.82388 3.89117 2.02996 3.48672C2.34953 2.85951 2.85947 2.34958 3.48668 2.03C3.89112 1.82392 4.32171 1.74179 4.79012 1.70352C5.24112 1.66667 5.79475 1.66668 6.46555 1.66669H6.46556ZM6.66664 15V16.5995L8.38374 15.2258L8.43983 15.1809C8.79156 14.8993 9.05744 14.6864 9.36042 14.5316C9.62788 14.395 9.91258 14.2951 10.2068 14.2347C10.5401 14.1663 10.8807 14.1665 11.3313 14.1667L11.4031 14.1667H13.5C14.2138 14.1667 14.699 14.166 15.0741 14.1354C15.4395 14.1055 15.6263 14.0514 15.7566 13.985C16.0702 13.8252 16.3252 13.5703 16.485 13.2567C16.5514 13.1263 16.6055 12.9395 16.6354 12.5742C16.666 12.1991 16.6666 11.7138 16.6666 11V6.50002C16.6666 5.78621 16.666 5.30096 16.6354 4.92589C16.6055 4.56054 16.5514 4.3737 16.485 4.24337C16.3252 3.92977 16.0702 3.6748 15.7566 3.51501C15.6263 3.4486 15.4395 3.3945 15.0741 3.36465C14.699 3.334 14.2138 3.33335 13.5 3.33335H6.49998C5.78616 3.33335 5.30092 3.334 4.92584 3.36465C4.5605 3.3945 4.37366 3.4486 4.24333 3.51501C3.92972 3.6748 3.67476 3.92977 3.51497 4.24337C3.44856 4.3737 3.39445 4.56054 3.3646 4.92589C3.33396 5.30096 3.33331 5.7862 3.33331 6.50002V11.6667C3.33331 12.4953 3.34047 12.7462 3.3901 12.9314C3.54421 13.5065 3.99346 13.9558 4.56861 14.1099C4.75384 14.1595 5.00468 14.1667 5.83331 14.1667C6.29355 14.1667 6.66664 14.5398 6.66664 15ZM5 7.08333C5 6.6231 5.3731 6.25 5.83333 6.25H10C10.4602 6.25 10.8333 6.6231 10.8333 7.08333C10.8333 7.54357 10.4602 7.91667 10 7.91667H5.83333C5.3731 7.91667 5 7.54357 5 7.08333ZM5.83333 9.16669C5.3731 9.16669 5 9.53978 5 10C5 10.4603 5.3731 10.8334 5.83333 10.8334H12.5C12.9602 10.8334 13.3333 10.4603 13.3333 10C13.3333 9.53978 12.9602 9.16669 12.5 9.16669H5.83333Z" fill="white" fill-opacity="0.65"/>
</g>
</svg>
