<svg width="20" height="20" viewBox="0 0 20 20" fill="none" xmlns="http://www.w3.org/2000/svg">
<path d="M16.6749 5.33336L9.59161 9.26669C9.18328 9.48336 9.04161 9.99169 9.26661 10.3917C9.48328 10.7917 9.99161 10.9334 10.3916 10.7084L17.4749 6.76669C17.8749 6.54169 18.0166 6.03336 17.7916 5.63336C17.5666 5.22502 17.0583 5.08336 16.6583 5.30836L16.6749 5.33336ZM10.3999 9.26669L3.30828 5.32502C2.89994 5.10002 2.39161 5.24169 2.17494 5.64169C1.94994 6.04169 2.09161 6.55002 2.49161 6.76669L9.57494 10.7C9.97494 10.9167 10.4833 10.775 10.6999 10.375C10.9166 9.96669 10.7749 9.45836 10.3749 9.24169L10.3999 9.26669ZM9.15828 9.99169V17.9084C9.15828 18.3667 9.52494 18.7417 9.99161 18.7417C10.4499 18.7417 10.8249 18.3667 10.8249 17.9084V9.99169C10.8249 9.52502 10.4499 9.15836 9.99161 9.15836C9.52494 9.15836 9.15828 9.52502 9.15828 9.99169ZM18.3249 13.3667V6.60002C18.3249 6.13336 18.3166 6.00836 18.2333 5.77502C18.1583 5.55002 18.0333 5.34169 17.8749 5.16669C17.7083 4.98336 17.5999 4.91669 17.1999 4.69169L11.0333 1.25836C10.6416 1.04169 10.5416 0.991689 10.3166 0.941689C10.0916 0.891689 9.85828 0.891689 9.64161 0.933356C9.61661 0.933356 9.61661 0.933356 9.59161 0.941689C9.38328 0.991689 9.28328 1.03336 8.91661 1.23336L2.74161 4.65836C2.46661 4.80836 2.38328 4.85002 2.26661 4.94169C2.19161 4.99169 2.12494 5.05002 2.05828 5.11669C1.89161 5.28336 1.77494 5.49169 1.69994 5.71669C1.61661 5.94169 1.60828 6.06669 1.60828 6.53336V13.2917C1.60828 13.75 1.60828 13.875 1.69161 14.1084C1.75828 14.3334 1.88328 14.5334 2.04161 14.7084C2.19994 14.8834 2.30828 14.95 2.70828 15.175L8.87494 18.6C9.24994 18.8084 9.35828 18.8584 9.58328 18.9084C9.79994 18.95 10.0333 18.95 10.2499 18.9C10.4749 18.85 10.5833 18.8 10.9583 18.5834L17.1166 15.15C17.5166 14.925 17.6166 14.8584 17.7833 14.675C17.9416 14.5 18.0583 14.2917 18.1333 14.0667C18.2083 13.8334 18.2166 13.7084 18.2166 13.2417L18.3249 13.3667ZM16.6583 13.3667C16.6583 13.6167 16.6499 13.6667 16.6583 13.6584C16.6583 13.65 16.6166 13.675 16.3999 13.8L10.2249 17.225C10.0166 17.3334 9.96661 17.3584 9.97494 17.3584C9.97494 17.35 9.97494 17.35 9.97494 17.3584C9.98328 17.3584 9.93328 17.3334 9.72494 17.2167L3.54994 13.7834C3.32494 13.6584 3.28328 13.625 3.29161 13.6334C3.28328 13.625 3.28328 13.625 3.28328 13.625C3.28328 13.6334 3.28328 13.575 3.28328 13.325V6.55836C3.28328 6.30002 3.28328 6.25002 3.28328 6.25836C3.27494 6.25836 3.27494 6.25836 3.28328 6.25836C3.26661 6.26669 3.26661 6.26669 3.25828 6.27502C3.28328 6.25002 3.34161 6.21669 3.53328 6.10836L9.69994 2.67502C9.89994 2.55836 9.94994 2.53336 9.94994 2.53336C9.94161 2.53336 9.94161 2.53336 9.94161 2.53336C9.94161 2.52502 9.93328 2.52502 9.94161 2.53336C9.92494 2.52502 9.97494 2.55002 10.1833 2.66669L16.3499 6.09169C16.5666 6.20836 16.6083 6.24169 16.5999 6.23336C16.5916 6.22502 16.5916 6.22502 16.5916 6.22502C16.5833 6.20836 16.5916 6.26669 16.5916 6.51669V13.275L16.6583 13.3667Z" fill="white"/>
<path d="M14.1499 7.18337L6.64992 3.0167C6.24158 2.7917 5.73325 2.93337 5.51658 3.33337C5.29158 3.73337 5.43325 4.2417 5.83325 4.45837L13.3332 8.62504C13.7332 8.8417 14.2416 8.70004 14.4582 8.30004C14.6749 7.8917 14.5332 7.38337 14.1332 7.1667L14.1499 7.18337Z" fill="white"/>
</svg>
