<svg width="12" height="12" viewBox="0 0 12 12" fill="none" xmlns="http://www.w3.org/2000/svg">
<circle cx="6" cy="6" r="6" fill="#808080"/>
<path d="M5.53816 6.13816C5.84211 5.58947 6.42632 5.26579 6.76579 4.78026C7.125 4.27105 6.92368 3.31974 5.90526 3.31974C5.23816 3.31974 4.91053 3.825 4.77237 4.24342L3.75 3.81316C4.03026 2.97237 4.79211 2.25 5.90132 2.25C6.82895 2.25 7.46447 2.67237 7.78816 3.20132C8.06447 3.65526 8.22632 4.50395 7.8 5.13553C7.32632 5.83421 6.87237 6.04737 6.62763 6.49737C6.52895 6.67895 6.48947 6.79737 6.48947 7.38158H5.34868C5.34474 7.07368 5.29737 6.57237 5.53816 6.13816ZM6.69474 8.96053C6.69474 9.39474 6.33947 9.75 5.90526 9.75C5.47105 9.75 5.11579 9.39474 5.11579 8.96053C5.11579 8.52632 5.47105 8.17105 5.90526 8.17105C6.33947 8.17105 6.69474 8.52632 6.69474 8.96053Z" fill="white"/>
</svg>
