<svg width="14" height="21" viewBox="0 0 14 21" fill="none" xmlns="http://www.w3.org/2000/svg">
<path d="M1.44631 9.19309L6.83422 4.82938C6.93544 4.74199 7.09025 4.74199 7.19742 4.82938L12.5853 9.18901C12.9485 9.48614 13.4904 9.43312 13.794 9.07773C13.794 9.06608 13.8 9.06025 13.8059 9.05443C14.1096 8.67573 14.0501 8.12808 13.6749 7.8193L8.28644 3.45443C7.53622 2.84852 6.45792 2.84852 5.71365 3.45443L0.326924 7.8129C-0.0541417 8.11585 -0.107729 8.6635 0.195933 9.04219C0.487686 9.40341 1.07119 9.47856 1.44631 9.19309Z" fill="#666666"/>
<path d="M13.1408 15.8406V11.7624C13.1289 11.407 12.9676 11.0691 12.6996 10.836L7.75769 6.75781C7.32899 6.40242 6.69785 6.40242 6.26915 6.75781L1.3272 10.836C1.05331 11.0691 0.898502 11.4012 0.886594 11.7566V15.8348C0.874686 16.4698 1.3927 16.9883 2.0417 17H5.24504C5.56656 16.9942 5.82854 16.732 5.82259 16.4174V13.2131C5.81663 12.8926 6.07862 12.6305 6.40014 12.6305H7.5612C7.88273 12.6305 8.14471 12.8926 8.13876 13.2131V16.4174C8.1328 16.732 8.39478 16.9942 8.71631 17H11.9196C12.5686 16.9883 13.1468 16.4757 13.1408 15.8406Z" fill="#666666"/>
</svg>
