<svg width="14" height="14" viewBox="0 0 14 14" fill="none" xmlns="http://www.w3.org/2000/svg">
<g clip-path="url(#clip0_3096_1810)">
<path d="M1.99563 3.29174C1.81495 3.1096 1.72375 2.88552 1.72375 2.62683C1.72375 2.36782 1.81586 2.14406 1.99826 1.96313C2.1804 1.78245 2.40449 1.69125 2.66317 1.69125C2.92218 1.69125 3.14594 1.78336 3.32687 1.96576C3.50755 2.1479 3.59875 2.37198 3.59875 2.63067C3.59875 2.88968 3.50664 3.11344 3.32424 3.29437M1.99563 3.29174L3.32424 3.29437M1.99563 3.29174C2.17656 3.47414 2.40032 3.56625 2.65933 3.56625C2.91802 3.56625 3.1421 3.47505 3.32424 3.29437M1.99563 3.29174L3.32424 3.29437M5.12 8.90125V9.02625H5.245H6.22H6.345V8.90125V5.0825V4.9575H6.22H5.245H5.12V5.0825V8.90125ZM7.655 8.90125V9.02625H7.78H8.755H8.88V8.90125V5.0825V4.9575H8.755H7.78H7.655V5.0825V8.90125ZM1.12464 4.32786L0.996278 4.1995L0.922148 4.3652C0.734344 4.785 0.596042 5.21358 0.507487 5.65081C0.419099 6.08723 0.375 6.53702 0.375 7C0.375 7.91544 0.54881 8.77737 0.897104 9.58452C1.24435 10.3893 1.71623 11.0905 2.31286 11.6871C2.90949 12.2838 3.61074 12.7556 4.41548 13.1029C5.22263 13.4512 6.08456 13.625 7 13.625C7.91544 13.625 8.77737 13.4512 9.58452 13.1029C10.3893 12.7556 11.0905 12.2838 11.6871 11.6871C12.2838 11.0905 12.7556 10.3893 13.1029 9.58452C13.4512 8.77737 13.625 7.91544 13.625 7C13.625 6.08426 13.4481 5.22207 13.0936 4.41475C12.7402 3.60987 12.26 2.90863 11.653 2.3121C11.0463 1.71584 10.3384 1.24417 9.53041 0.897026C8.71984 0.54878 7.85428 0.375 6.935 0.375C6.48161 0.375 6.04142 0.424772 5.61467 0.524532C5.19246 0.62323 4.77316 0.749306 4.35679 0.902707L4.17347 0.970245L4.31161 1.10839L5.05911 1.85589L5.11207 1.90884L5.18374 1.88713C5.48158 1.7969 5.78228 1.72644 6.0859 1.67572L6.06536 1.55279L6.0859 1.67572C6.38811 1.62523 6.69122 1.6 6.99532 1.6C8.50661 1.6 9.78216 2.12258 10.8296 3.16912C11.877 4.21567 12.4 5.49009 12.4 7C12.4 8.50994 11.8774 9.78438 10.8309 10.8309C9.78438 11.8774 8.50994 12.4 7 12.4C5.49006 12.4 4.21562 11.8774 3.16908 10.8309C2.12255 9.78438 1.6 8.50994 1.6 7C1.6 6.69263 1.62646 6.3883 1.67937 6.08693C1.73278 5.78271 1.80221 5.48101 1.88769 5.18184L1.9079 5.11112L1.85589 5.05911L1.12464 4.32786Z" fill="#4F5458" stroke="#4F5458" stroke-width="0.25"/>
</g>
<defs>
<clipPath id="clip0_3096_1810">
<rect width="14" height="14" fill="white"/>
</clipPath>
</defs>
</svg>
