<svg width="14" height="14" viewBox="0 0 14 14" fill="none" xmlns="http://www.w3.org/2000/svg">
<g clip-path="url(#clip0_3096_1825)">
<path d="M14 7C14 10.866 10.866 14 7 14C3.13401 14 0 10.866 0 7C0 3.13401 3.13401 0 7 0C10.866 0 14 3.13401 14 7ZM2.1 7C2.1 9.70619 4.2938 11.9 7 11.9C9.70619 11.9 11.9 9.70619 11.9 7C11.9 4.2938 9.70619 2.1 7 2.1C4.2938 2.1 2.1 4.2938 2.1 7Z" fill="#C6D1DD"/>
<path d="M7 1.05C7 0.470101 7.4727 -0.00806221 8.04609 0.0786004C9.0589 0.231679 10.0302 0.605901 10.889 1.17971C12.0401 1.94888 12.9373 3.04213 13.4672 4.32122C13.997 5.6003 14.1356 7.00777 13.8655 8.36563C13.5954 9.7235 12.9287 10.9708 11.9497 11.9497C10.9708 12.9287 9.7235 13.5954 8.36563 13.8655C7.00777 14.1356 5.6003 13.997 4.32122 13.4672C3.04213 12.9373 1.94888 12.0401 1.17971 10.889C0.605901 10.0302 0.231679 9.0589 0.0786003 8.04609C-0.00806223 7.4727 0.470101 7 1.05 7C1.6299 7 2.08875 7.47537 2.21207 8.042C2.34197 8.63887 2.58301 9.20927 2.9258 9.72229C3.46422 10.5281 4.22949 11.1561 5.12485 11.527C6.02021 11.8979 7.00544 11.9949 7.95594 11.8058C8.90645 11.6168 9.77955 11.1501 10.4648 10.4648C11.1501 9.77955 11.6168 8.90645 11.8058 7.95594C11.9949 7.00544 11.8979 6.02021 11.527 5.12485C11.1561 4.22949 10.5281 3.46422 9.72229 2.9258C9.20927 2.58301 8.63887 2.34197 8.042 2.21207C7.47537 2.08875 7 1.6299 7 1.05Z" fill="#4F8AEC"/>
</g>
<defs>
<clipPath id="clip0_3096_1825">
<rect width="14" height="14" fill="white"/>
</clipPath>
</defs>
</svg>
