<svg width="14" height="14" viewBox="0 0 14 14" fill="none" xmlns="http://www.w3.org/2000/svg">
<path d="M6.99968 10.5C7.16323 10.5 7.30042 10.4447 7.41125 10.3341C7.52208 10.2234 7.5775 10.0863 7.5775 9.92282C7.5775 9.75927 7.52219 9.62208 7.41157 9.51125C7.30093 9.40042 7.16385 9.345 7.00032 9.345C6.83677 9.345 6.69958 9.40031 6.58875 9.51093C6.47792 9.62157 6.4225 9.75865 6.4225 9.92218C6.4225 10.0857 6.47781 10.2229 6.58843 10.3338C6.69907 10.4446 6.83615 10.5 6.99968 10.5ZM6.5275 7.8225H7.5775V3.395H6.5275V7.8225ZM7.00465 14C6.03942 14 5.13234 13.8163 4.2834 13.4488C3.43447 13.0813 2.69208 12.5796 2.05625 11.9438C1.42042 11.3079 0.91875 10.5651 0.55125 9.71528C0.18375 8.86548 0 7.95747 0 6.99125C0 6.02503 0.18375 5.11702 0.55125 4.26722C0.91875 3.41741 1.42042 2.6775 2.05625 2.0475C2.69208 1.4175 3.43491 0.91875 4.28472 0.55125C5.13452 0.18375 6.04253 0 7.00875 0C7.97497 0 8.88298 0.18375 9.73278 0.55125C10.5826 0.91875 11.3225 1.4175 11.9525 2.0475C12.5825 2.6775 13.0813 3.41833 13.4488 4.27C13.8163 5.12167 14 6.03012 14 6.99535C14 7.96058 13.8163 8.86766 13.4488 9.7166C13.0813 10.5655 12.5825 11.3068 11.9525 11.9405C11.3225 12.5742 10.5817 13.0759 9.73 13.4455C8.87833 13.8152 7.96988 14 7.00465 14Z" fill="#E94D49"/>
</svg>
