<svg width="16" height="17" viewBox="0 0 16 17" fill="none" xmlns="http://www.w3.org/2000/svg">
<path d="M7.99964 12.5C8.18655 12.5 8.34333 12.4368 8.47 12.3104C8.59667 12.1839 8.66 12.0273 8.66 11.8404C8.66 11.6535 8.59679 11.4967 8.47036 11.37C8.34392 11.2433 8.18725 11.18 8.00036 11.18C7.81345 11.18 7.65667 11.2432 7.53 11.3696C7.40333 11.4961 7.34 11.6527 7.34 11.8396C7.34 12.0265 7.40321 12.1833 7.52964 12.31C7.65608 12.4367 7.81275 12.5 7.99964 12.5ZM7.46 9.44H8.66V4.38H7.46V9.44ZM8.00532 16.5C6.9022 16.5 5.86553 16.29 4.89532 15.87C3.92511 15.45 3.07667 14.8767 2.35 14.15C1.62333 13.4233 1.05 12.5744 0.63 11.6032C0.21 10.632 0 9.59425 0 8.49C0 7.38575 0.21 6.34802 0.63 5.37682C1.05 4.40561 1.62333 3.56 2.35 2.84C3.07667 2.12 3.92561 1.55 4.89682 1.13C5.86802 0.71 6.90575 0.5 8.01 0.5C9.11425 0.5 10.152 0.71 11.1232 1.13C12.0944 1.55 12.94 2.12 13.66 2.84C14.38 3.56 14.95 4.40667 15.37 5.38C15.79 6.35333 16 7.39156 16 8.49468C16 9.5978 15.79 10.6345 15.37 11.6047C14.95 12.5749 14.38 13.4221 13.66 14.1463C12.94 14.8705 12.0933 15.4439 11.12 15.8663C10.1467 16.2888 9.10844 16.5 8.00532 16.5Z" fill="#E94D49"/>
</svg>
