<svg width="104" height="20" viewBox="0 0 104 20" fill="none" xmlns="http://www.w3.org/2000/svg">
<path fill-rule="evenodd" clip-rule="evenodd" d="M0 1.52942L1.52941 0H6.43137V6.43138H0V1.52942ZM6.78431 0H13.2157V4.90196L11.6471 6.43138H8.31372L6.78431 4.90196V0ZM15.098 6.78432L13.5686 8.31373V11.6863L15.098 13.2157H20V6.78432H15.098ZM6.78431 20H13.2157V15.098L11.6471 13.5686H8.31372L6.78431 15.098V20ZM20 20V15.098L18.4706 13.5686H13.5686V20H20ZM13.5686 0V4.90196L15.098 6.43138H20V0H13.5686ZM9.09804 10C9.09804 10.4706 9.4902 10.902 10 10.902C10.5098 10.902 10.902 10.5098 10.902 10C10.902 9.52941 10.5098 9.09804 10 9.09804C9.52942 9.09804 9.09804 9.4902 9.09804 10ZM6.43137 6.78432H0V13.2157H4.86274L6.43137 11.6863V6.78432ZM4.86274 13.5686L6.43137 15.098V18.4706L4.86274 20H0V13.5686H4.86274Z" fill="#0ECAD4"/>
<path d="M79.5538 3.11705C79.4383 3.11705 79.3613 3.04002 79.3613 2.92447V2.11567C79.3613 2.00012 79.4383 1.9231 79.5538 1.9231H80.0158C80.1313 1.9231 80.2083 2.00012 80.2083 2.11567V2.92447C80.2083 3.04002 80.1313 3.11705 80.0158 3.11705H79.5538Z" fill="white"/>
<path d="M79.7078 15.4031C79.5923 15.4031 79.5153 15.3261 79.5153 15.2106V6.23672C79.5153 6.12117 79.5923 6.04414 79.7078 6.04414H79.9003C80.0158 6.04414 80.0928 6.12117 80.0928 6.23672V15.2106C80.0928 15.3261 80.0158 15.4031 79.9003 15.4031H79.7078Z" fill="white"/>
<path d="M32.9697 15.5957C32.8542 15.5957 32.8157 15.5572 32.7772 15.4417L31.1987 9.85707H31.1602L29.5818 15.4417C29.5433 15.5572 29.5048 15.5957 29.3893 15.5957H27.5413C27.4258 15.5957 27.3873 15.5572 27.3488 15.4417L24.6154 5.73603C24.6154 5.659 24.6154 5.58197 24.7309 5.58197H27.1563C27.2718 5.58197 27.3488 5.659 27.3488 5.73603L28.6578 11.5517H28.6963L30.2363 5.73603C30.2748 5.62049 30.3133 5.58197 30.4288 5.58197H31.9302C32.0457 5.58197 32.0842 5.62049 32.1227 5.73603L33.7397 11.5517H33.7782L35.0102 5.73603C35.0102 5.659 35.0872 5.58197 35.2027 5.58197H37.6281C37.7051 5.58197 37.7436 5.659 37.7436 5.73603L35.0487 15.4417C35.0102 15.5572 34.9717 15.5957 34.8562 15.5957H32.9697Z" fill="white"/>
<path fill-rule="evenodd" clip-rule="evenodd" d="M39.6686 15.5957C39.5916 15.5957 39.5146 15.5187 39.5146 15.4417V5.73603C39.5146 5.659 39.5916 5.58197 39.6686 5.58197H43.6725C46.098 5.58197 47.3684 6.96849 47.3684 8.89421C47.3684 10.8199 46.098 12.245 43.6725 12.245H42.2095C42.1325 12.245 42.1325 12.2835 42.1325 12.322V15.4031C42.1325 15.4802 42.0555 15.5572 41.9785 15.5572H39.6686V15.5957ZM44.789 8.93273C44.789 8.23947 44.327 7.81581 43.5185 7.81581H42.2095C42.1325 7.81581 42.1325 7.85432 42.1325 7.89283V10.0111C42.1325 10.0882 42.171 10.0882 42.2095 10.0882H43.5185C44.327 10.0882 44.789 9.62598 44.789 8.93273Z" fill="white"/>
<path fill-rule="evenodd" clip-rule="evenodd" d="M50.5254 10.6659C50.5254 11.9754 50.6024 12.6301 50.7949 13.1693C51.3339 14.7869 52.4888 15.5957 54.2213 15.5957C55.6843 15.5957 56.8008 14.941 57.4552 14.0166C57.5322 13.9396 57.5322 13.8241 57.4167 13.747L57.3012 13.6315C57.2242 13.5545 57.1088 13.5545 57.0318 13.67C56.4543 14.4403 55.4918 15.018 54.1828 15.018C52.7968 15.018 51.7573 14.4018 51.2954 12.9767C51.1414 12.4761 51.0644 11.8983 51.0644 10.8584C51.0644 10.7814 51.1029 10.7044 51.1799 10.7044H57.4552C57.6092 10.7044 57.6862 10.6274 57.6862 10.5118C57.6862 9.31787 57.6092 8.70164 57.4167 8.16244C56.9163 6.58335 55.7228 5.77454 54.1058 5.77454C52.5273 5.77454 51.2954 6.58335 50.7949 8.16244C50.6409 8.70164 50.5254 9.3949 50.5254 10.6659ZM57.1472 10.0496C57.1472 10.1267 57.1088 10.1652 57.0318 10.1652H51.2569C51.1799 10.1652 51.1414 10.1267 51.1414 10.0496C51.1414 9.35638 51.2184 8.8557 51.3724 8.39353C51.7958 7.00701 52.7968 6.35225 54.1443 6.35225C55.4918 6.35225 56.4928 7.04552 56.9163 8.39353C57.0702 8.8557 57.1472 9.3949 57.1472 10.0496Z" fill="white"/>
<path d="M66.6181 15.4031C66.5026 15.4031 66.4256 15.3261 66.4256 15.2106V9.58748C66.4256 7.35364 65.5016 6.39077 63.6921 6.39077C62.1137 6.39077 60.8047 7.46918 60.8047 9.31787V15.2491C60.8047 15.3646 60.7277 15.4417 60.6122 15.4417H60.4197C60.3042 15.4417 60.2272 15.3646 60.2272 15.2491V6.27523C60.2272 6.15969 60.3042 6.08266 60.4197 6.08266H60.6122C60.7277 6.08266 60.8047 6.15969 60.8047 6.27523V7.58472H60.8432C61.3052 6.50632 62.3832 5.85157 63.7306 5.85157C65.8481 5.85157 67.0416 7.04552 67.0416 9.47193V15.2491C67.0416 15.3646 66.9646 15.4417 66.8491 15.4417H66.6181V15.4031Z" fill="white"/>
<path fill-rule="evenodd" clip-rule="evenodd" d="M69.8905 17.56C69.775 17.5985 69.775 17.714 69.852 17.8296C70.314 18.5613 71.4305 19.1776 72.778 19.2161C74.9339 19.2161 76.3199 18.0606 76.3199 15.4802V6.27523C76.3199 6.15969 76.2429 6.08266 76.1274 6.08266H75.9349C75.8194 6.08266 75.7424 6.15969 75.7424 6.27523V7.62324H75.7039C75.2419 6.58335 74.4334 5.85157 72.778 5.85157C71.1995 5.85157 70.1215 6.69888 69.6595 8.0854C69.467 8.74015 69.3515 9.58748 69.3515 10.7429C69.3515 11.8983 69.4285 12.7457 69.6595 13.4004C70.1215 14.7869 71.1995 15.6342 72.778 15.6342C74.4334 15.6342 75.2419 14.9025 75.7039 13.8626H75.7424V15.4417C75.7424 17.7525 74.5874 18.6384 72.8165 18.6384C71.6615 18.6384 70.853 18.2147 70.314 17.5214C70.237 17.4059 70.16 17.3674 70.0445 17.4444L69.8905 17.56ZM75.7424 10.7044C75.7424 11.8983 75.6654 12.5916 75.4729 13.1693C75.0494 14.5558 74.0099 15.0565 72.855 14.9795C71.5845 14.9795 70.699 14.3633 70.2755 13.1308C70.083 12.5531 69.9675 11.7443 69.9675 10.6659C69.9675 9.58747 70.083 8.77867 70.2755 8.20095C70.6605 6.96849 71.5845 6.35225 72.855 6.35225C74.0099 6.35225 75.0109 6.85295 75.4729 8.23947C75.6654 8.81719 75.7424 9.54896 75.7424 10.7044Z" fill="white"/>
<path d="M89.4866 15.2106C89.4866 15.3261 89.5636 15.4031 89.6791 15.4031V15.4417H89.9101C90.0256 15.4417 90.1026 15.3646 90.1026 15.2491V9.47193C90.1026 7.04552 88.9092 5.85157 86.7917 5.85157C85.4442 5.85157 84.3662 6.50632 83.9042 7.58472H83.8657V6.27523C83.8657 6.15969 83.7887 6.08266 83.6733 6.08266H83.4808C83.3653 6.08266 83.2883 6.15969 83.2883 6.27523V15.2491C83.2883 15.3646 83.3653 15.4417 83.4808 15.4417H83.6733C83.7887 15.4417 83.8657 15.3646 83.8657 15.2491V9.31787C83.8657 7.46918 85.1747 6.39077 86.7532 6.39077C88.5627 6.39077 89.4866 7.35364 89.4866 9.58748V15.2106Z" fill="white"/>
<path fill-rule="evenodd" clip-rule="evenodd" d="M92.7206 13.1693C92.5281 12.6301 92.4511 11.9754 92.4511 10.6659C92.4511 9.3949 92.5666 8.70164 92.7206 8.16244C93.2211 6.58335 94.453 5.77454 96.0315 5.77454C97.6485 5.77454 98.842 6.58335 99.3425 8.16244C99.535 8.70164 99.612 9.31787 99.612 10.5118C99.612 10.6274 99.535 10.7044 99.381 10.7044H93.1441C93.0671 10.7044 93.0286 10.7814 93.0286 10.8584C93.0286 11.8983 93.1056 12.4761 93.2596 12.9767C93.7216 14.4018 94.761 15.018 96.147 15.018C97.456 15.018 98.4185 14.4403 98.996 13.67C99.073 13.5545 99.1885 13.5545 99.2655 13.6315L99.381 13.747C99.4965 13.8241 99.4965 13.9396 99.4195 14.0166C98.765 14.941 97.6485 15.5957 96.1855 15.5957C94.4145 15.5957 93.2211 14.7869 92.7206 13.1693ZM98.919 10.1652C98.996 10.1652 99.0345 10.1267 99.0345 10.0496C99.0345 9.3949 98.9575 8.8557 98.8035 8.39353C98.38 7.04552 97.379 6.35225 96.0315 6.35225C94.684 6.35225 93.6831 7.00701 93.2596 8.39353C93.1056 8.8557 93.0286 9.35638 93.0286 10.0496C93.0286 10.1267 93.0671 10.1652 93.1441 10.1652H98.919Z" fill="white"/>
<path fill-rule="evenodd" clip-rule="evenodd" d="M101.498 7.5462C101.498 7.58472 101.498 7.58472 101.537 7.58472H101.614C101.614 7.58472 101.652 7.58472 101.652 7.5462V7.08404H101.922L102.191 7.58472C102.211 7.58472 102.22 7.59435 102.23 7.60398C102.24 7.61361 102.249 7.62324 102.268 7.62324H102.384C102.422 7.62324 102.461 7.58472 102.422 7.5462L102.153 7.04552C102.345 7.00701 102.422 6.85295 102.422 6.69889C102.422 6.46781 102.268 6.31375 101.999 6.31375H101.537C101.518 6.31375 101.508 6.31375 101.503 6.31856C101.498 6.32337 101.498 6.333 101.498 6.35225V7.5462ZM101.999 6.50632C102.153 6.50632 102.23 6.58335 102.23 6.69889C102.23 6.81444 102.153 6.89147 101.999 6.89147H101.691V6.50632H101.999Z" fill="white"/>
<path fill-rule="evenodd" clip-rule="evenodd" d="M101.922 5.81305C101.267 5.81305 100.767 6.31374 100.767 6.96849C100.767 7.62323 101.267 8.12392 101.922 8.12392C102.576 8.12392 103.077 7.62323 103.077 6.96849C103.077 6.31374 102.576 5.81305 101.922 5.81305ZM101.922 6.00563C102.461 6.00563 102.884 6.39077 102.884 6.96849C102.884 7.50769 102.461 7.93135 101.922 7.93135C101.383 7.93135 100.959 7.5462 100.959 6.96849C100.959 6.42929 101.344 6.00563 101.922 6.00563Z" fill="white"/>
</svg>
